<svg width="120" height="120" viewBox="0 0 120 120" fill="none" xmlns="http://www.w3.org/2000/svg">
<g clip-path="url(#clip0_175_73)">
<circle cx="60" cy="60" r="60" fill="#07117E"/>
<path d="M58.8746 20.2058L55.0516 18L58.8746 15.7941C59.0901 15.6698 59.1638 15.3948 59.0394 15.1793L58.1389 13.6204C58.0146 13.4052 57.7392 13.3312 57.5238 13.4556L53.7008 15.6614V11.25C53.7008 11.0014 53.4991 10.8 53.2505 10.8H51.4493C51.2007 10.8 50.9991 11.0014 50.9991 11.25V15.6617L47.176 13.4558C46.9606 13.3315 46.6853 13.4055 46.5609 13.6206L45.6604 15.1793C45.5361 15.3945 45.6098 15.6698 45.8252 15.7941L49.6482 18L45.8252 20.2058C45.6098 20.3301 45.5361 20.6055 45.6604 20.8206L46.5609 22.3796C46.6853 22.5948 46.9606 22.6685 47.176 22.5444L50.9991 20.3386V24.75C50.9991 24.9986 51.2007 25.2 51.4493 25.2H53.2505C53.4991 25.2 53.7008 24.9986 53.7008 24.75V20.3383L57.5238 22.5441C57.7392 22.6685 58.0146 22.5948 58.1389 22.3793L59.0394 20.8204C59.1638 20.6052 59.0901 20.3301 58.8746 20.2058Z" fill="#FFFEF3"/>
<path d="M95.6995 54.5411L90.6022 51.6L95.6995 48.6589C95.9868 48.4931 96.085 48.1264 95.9193 47.8391L94.7185 45.7605C94.5528 45.4736 94.1857 45.375 93.8984 45.5408L88.801 48.4819V42.6C88.801 42.2685 88.5322 42 88.2007 42H85.7992C85.4677 42 85.1988 42.2685 85.1988 42.6V48.4823L80.1014 45.5411C79.8142 45.3754 79.447 45.474 79.2813 45.7609L78.0805 47.8391C77.9148 48.126 78.013 48.4931 78.3003 48.6589L83.3977 51.6L78.3003 54.5411C78.013 54.7069 77.9148 55.074 78.0805 55.3609L79.2813 57.4395C79.447 57.7264 79.8142 57.8246 80.1014 57.6593L85.1988 54.7181V60.6C85.1988 60.9315 85.4677 61.2 85.7992 61.2H88.2007C88.5322 61.2 88.801 60.9315 88.801 60.6V54.7178L93.8984 57.6589C94.1857 57.8246 94.5528 57.7264 94.7185 57.4391L95.9193 55.3605C96.085 55.0736 95.9868 54.7069 95.6995 54.5411Z" fill="#FFFEF3"/>
<path d="M91.2555 29.1955L83.2909 24.6L91.2555 20.0045C91.7043 19.7455 91.8579 19.1724 91.5989 18.7236L89.7227 15.4758C89.4637 15.0275 88.8901 14.8734 88.4412 15.1324L80.4766 19.7279V10.5375C80.4766 10.0195 80.0565 9.59998 79.5385 9.59998H75.7862C75.2682 9.59998 74.8481 10.0195 74.8481 10.5375V19.7285L66.8834 15.133C66.4346 14.874 65.861 15.0281 65.602 15.4763L63.7258 18.7236C63.4668 19.1719 63.6203 19.7455 64.0692 20.0045L72.0338 24.6L64.0692 29.1955C63.6203 29.4545 63.4668 30.0281 63.7258 30.4763L65.602 33.7242C65.861 34.1724 66.4346 34.326 66.8834 34.0676L74.8481 29.472V38.6625C74.8481 39.1804 75.2682 39.6 75.7862 39.6H79.5385C80.0565 39.6 80.4766 39.1804 80.4766 38.6625V29.4715L88.4412 34.067C88.8901 34.326 89.4637 34.1724 89.7227 33.7236L91.5989 30.4758C91.8579 30.0275 91.7043 29.4545 91.2555 29.1955Z" fill="#FFFEF3"/>
<path d="M73.8908 78.9769C70.2476 74.2853 64.7739 71.6672 59.0524 71.5596C58.206 71.5436 57.8015 72.5918 58.4297 73.1443C65.5735 79.4265 65.1463 90.6216 57.6553 96.4385C53.3403 99.7892 47.5886 100.573 42.5529 98.4989C41.7767 98.1792 41.0117 99.0052 41.3981 99.7535C41.94 100.802 42.5767 101.799 43.3005 102.731C49.8202 111.127 61.9535 112.629 70.407 106.064C78.8497 99.5084 80.4188 87.3836 73.8908 78.9769Z" fill="#FFFEF3"/>
<path d="M41.8553 71.8793C46.6032 74.6536 52.238 74.9651 57.2388 73.0022C57.9785 72.7118 57.975 71.6541 57.243 71.3989C48.9199 68.4983 45.504 58.5997 50.0362 50.8437C52.6469 46.3759 57.3723 43.626 62.4431 43.6216C63.2247 43.621 63.6091 42.6269 63.0208 42.1145C62.1959 41.3964 61.3063 40.7576 60.363 40.2062C51.8663 35.2413 40.8308 38.2954 35.7163 47.0481C30.6083 55.7897 33.3478 66.908 41.8553 71.8793Z" fill="#FFFEF3"/>
</g>
<defs>
<clipPath id="clip0_175_73">
<rect width="120" height="120" fill="white"/>
</clipPath>
</defs>
</svg>
