<svg width="311" height="120" viewBox="0 0 311 120" fill="none" xmlns="http://www.w3.org/2000/svg">
<circle cx="60" cy="60" r="60" fill="#07117E"/>
<path d="M58.8746 20.2058L55.0516 18L58.8746 15.7941C59.0901 15.6698 59.1638 15.3948 59.0394 15.1793L58.1389 13.6204C58.0146 13.4052 57.7392 13.3312 57.5238 13.4556L53.7008 15.6614V11.25C53.7008 11.0014 53.4991 10.8 53.2505 10.8H51.4493C51.2007 10.8 50.9991 11.0014 50.9991 11.25V15.6617L47.176 13.4558C46.9606 13.3315 46.6853 13.4055 46.5609 13.6206L45.6604 15.1793C45.5361 15.3945 45.6098 15.6698 45.8252 15.7941L49.6482 18L45.8252 20.2058C45.6098 20.3301 45.5361 20.6055 45.6604 20.8206L46.5609 22.3796C46.6853 22.5948 46.9606 22.6685 47.176 22.5444L50.9991 20.3386V24.75C50.9991 24.9986 51.2007 25.2 51.4493 25.2H53.2505C53.4991 25.2 53.7008 24.9986 53.7008 24.75V20.3383L57.5238 22.5441C57.7392 22.6685 58.0146 22.5948 58.1389 22.3793L59.0394 20.8204C59.1638 20.6052 59.0901 20.3301 58.8746 20.2058Z" fill="#FFFEF3"/>
<path d="M95.6995 54.5411L90.6022 51.6L95.6995 48.6589C95.9868 48.4931 96.085 48.1264 95.9193 47.8391L94.7185 45.7605C94.5528 45.4736 94.1857 45.375 93.8984 45.5408L88.801 48.4819V42.6C88.801 42.2685 88.5322 42 88.2007 42H85.7992C85.4677 42 85.1988 42.2685 85.1988 42.6V48.4823L80.1014 45.5411C79.8142 45.3754 79.447 45.474 79.2813 45.7609L78.0805 47.8391C77.9148 48.126 78.013 48.4931 78.3003 48.6589L83.3977 51.6L78.3003 54.5411C78.013 54.7069 77.9148 55.074 78.0805 55.3609L79.2813 57.4395C79.447 57.7264 79.8142 57.8246 80.1014 57.6593L85.1988 54.7181V60.6C85.1988 60.9315 85.4677 61.2 85.7992 61.2H88.2007C88.5322 61.2 88.801 60.9315 88.801 60.6V54.7178L93.8984 57.6589C94.1857 57.8246 94.5528 57.7264 94.7185 57.4391L95.9193 55.3605C96.085 55.0736 95.9868 54.7069 95.6995 54.5411Z" fill="#FFFEF3"/>
<path d="M91.2555 29.1955L83.2909 24.6L91.2555 20.0045C91.7043 19.7455 91.8579 19.1724 91.5989 18.7236L89.7227 15.4758C89.4637 15.0275 88.8901 14.8734 88.4412 15.1324L80.4766 19.7279V10.5375C80.4766 10.0195 80.0565 9.59998 79.5385 9.59998H75.7862C75.2682 9.59998 74.8481 10.0195 74.8481 10.5375V19.7285L66.8834 15.133C66.4346 14.874 65.861 15.0281 65.602 15.4763L63.7258 18.7236C63.4668 19.1719 63.6203 19.7455 64.0692 20.0045L72.0338 24.6L64.0692 29.1955C63.6203 29.4545 63.4668 30.0281 63.7258 30.4763L65.602 33.7242C65.861 34.1724 66.4346 34.326 66.8834 34.0676L74.8481 29.472V38.6625C74.8481 39.1804 75.2682 39.6 75.7862 39.6H79.5385C80.0565 39.6 80.4766 39.1804 80.4766 38.6625V29.4715L88.4412 34.067C88.8901 34.326 89.4637 34.1724 89.7227 33.7236L91.5989 30.4758C91.8579 30.0275 91.7043 29.4545 91.2555 29.1955Z" fill="#FFFEF3"/>
<path d="M73.8908 78.9769C70.2476 74.2853 64.7739 71.6672 59.0524 71.5596C58.206 71.5436 57.8015 72.5918 58.4297 73.1443C65.5735 79.4265 65.1463 90.6216 57.6553 96.4385C53.3403 99.7892 47.5886 100.573 42.5529 98.4989C41.7767 98.1792 41.0117 99.0052 41.3981 99.7535C41.94 100.802 42.5767 101.799 43.3005 102.731C49.8202 111.127 61.9535 112.629 70.407 106.064C78.8497 99.5084 80.4188 87.3836 73.8908 78.9769Z" fill="#FFFEF3"/>
<path d="M41.8553 71.8793C46.6032 74.6536 52.238 74.9651 57.2388 73.0022C57.9785 72.7118 57.975 71.6541 57.243 71.3989C48.9199 68.4983 45.504 58.5997 50.0362 50.8437C52.6469 46.3759 57.3723 43.626 62.4431 43.6216C63.2247 43.621 63.6091 42.6269 63.0208 42.1145C62.1959 41.3964 61.3063 40.7576 60.363 40.2062C51.8663 35.2413 40.8308 38.2954 35.7163 47.0481C30.6083 55.7897 33.3478 66.908 41.8553 71.8793Z" fill="#FFFEF3"/>
<path d="M152.68 30.28C152.467 30.68 152.16 31.0667 151.76 31.44C151.36 31.7867 150.973 32.0267 150.6 32.16C150.227 32.2667 149.987 32.2267 149.88 32.04C148.973 30.3067 147.72 28.8667 146.12 27.72C144.52 26.5733 142.813 25.9067 141 25.72C139.88 25.6133 138.893 25.6933 138.04 25.96C137.213 26.2 136.627 26.4933 136.28 26.84C135.96 27.1867 135.72 27.8133 135.56 28.72C135.4 29.6 135.547 30.5733 136 31.64C136.453 32.7067 137.173 33.6 138.16 34.32C139.147 35.0133 140.36 35.6133 141.8 36.12C141.88 36.1467 142.4 36.3333 143.36 36.68C144.32 37 145.053 37.2667 145.56 37.48C149 38.9467 150.933 41.12 151.36 44C151.653 45.92 151.187 47.8 149.96 49.64C149.267 50.7067 148.413 51.6267 147.4 52.4C144.867 54.32 142.107 55.0267 139.12 54.52C137.12 54.1733 135.293 53.36 133.64 52.08C131.987 50.7733 130.707 49.1867 129.8 47.32C129.693 47.1067 129.747 46.8 129.96 46.4C130.2 46 130.52 45.6267 130.92 45.28C131.32 44.9067 131.693 44.6667 132.04 44.56C132.413 44.4267 132.653 44.4667 132.76 44.68C133.64 46.44 134.853 47.9333 136.4 49.16C137.973 50.3867 139.6 51.1467 141.28 51.44C142.987 51.7333 144.387 51.6933 145.48 51.32C146.6 50.92 147.333 50.4533 147.68 49.92C148.32 48.9333 148.533 47.7333 148.32 46.32C147.947 43.7867 146.16 41.8267 142.96 40.44C142.48 40.2267 141.76 39.9733 140.8 39.68C138.32 38.8267 136.533 38 135.44 37.2C134.347 36.4 133.533 35.4 133 34.2C132.467 32.9733 132.333 31.6267 132.6 30.16C132.893 28.6933 133.693 27.2667 135 25.88C137.373 23.4267 140.147 22.36 143.32 22.68C145.32 22.8933 147.16 23.6133 148.84 24.84C150.547 26.04 151.88 27.5467 152.84 29.36C152.947 29.5467 152.893 29.8533 152.68 30.28ZM157.961 21.88C157.988 21.56 158.161 21.1867 158.481 20.76C158.801 20.3333 159.134 20.0133 159.481 19.8C159.828 19.56 160.108 19.4133 160.321 19.36C160.801 19.2267 161.028 19.3733 161.001 19.8L158.961 41.92L170.401 32.04C170.801 31.6933 171.174 31.48 171.521 31.4C171.868 31.2933 172.081 31.36 172.161 31.6C172.241 31.8133 172.161 32.1333 171.921 32.56C171.708 32.96 171.388 33.3333 170.961 33.68L163.481 40.16L171.721 51.64C171.854 51.8267 171.828 52.12 171.641 52.52C171.454 52.8933 171.161 53.2667 170.761 53.64C170.361 54.0133 169.974 54.2667 169.601 54.4C169.228 54.56 168.974 54.5467 168.841 54.36L160.521 42.76C160.521 42.76 160.508 42.7467 160.481 42.72L158.761 44.24L158.041 51.96C158.014 52.2533 157.841 52.6133 157.521 53.04C157.201 53.4933 156.868 53.8267 156.521 54.04C156.174 54.28 155.894 54.4267 155.681 54.48C155.201 54.6133 154.974 54.4667 155.001 54.04L157.961 21.88ZM192.526 50.28C192.872 50.2267 193.072 50.3333 193.126 50.6C193.179 50.84 193.059 51.1733 192.766 51.6C192.499 52.0267 192.032 52.5067 191.366 53.04C190.699 53.5733 189.992 53.9867 189.246 54.28C187.779 54.8667 186.872 54.6 186.526 53.48C186.366 53.0267 186.299 52.1867 186.326 50.96C184.939 52.64 183.539 53.7333 182.126 54.24C180.712 54.7467 179.392 54.8267 178.166 54.48C174.352 53.4133 173.206 49.0133 174.726 41.28C175.232 38.72 176.126 36.6133 177.406 34.96C179.592 32.1333 182.272 30.9333 185.446 31.36C186.779 31.52 187.819 32.0133 188.566 32.84C189.179 32.0133 189.819 31.52 190.486 31.36C190.699 31.3067 190.859 31.3333 190.966 31.44C191.099 31.52 191.152 31.6667 191.126 31.88C189.579 43.16 189.032 49.5067 189.486 50.92C189.699 51.56 190.046 51.76 190.526 51.52C190.739 51.4133 191.046 51.2 191.446 50.88C191.846 50.5333 192.206 50.3333 192.526 50.28ZM186.526 46.96C186.712 44.8267 186.846 43.4667 186.926 42.88C187.619 37.6533 186.326 34.8267 183.046 34.4C182.246 34.2933 181.552 34.3067 180.966 34.44C180.166 34.6 179.619 34.8533 179.326 35.2C178.659 36.0533 178.112 37.5733 177.686 39.76C177.259 41.9467 177.072 43.88 177.126 45.56C177.286 48.8667 178.459 50.8267 180.646 51.44C182.326 51.92 183.619 51.6133 184.526 50.52C185.192 49.72 185.859 48.5333 186.526 46.96ZM197.711 33.88C197.737 33.5867 197.911 33.2267 198.231 32.8C198.551 32.3733 198.884 32.0533 199.231 31.84C199.577 31.6 199.871 31.4533 200.111 31.4C200.591 31.2933 200.804 31.44 200.751 31.84L200.551 33.6C202.604 31.8667 204.724 31.12 206.911 31.36C207.284 31.4133 207.377 31.6933 207.191 32.2C206.924 32.8933 206.484 33.44 205.871 33.84C205.257 34.24 204.831 34.4267 204.591 34.4C203.231 34.24 202.071 34.52 201.111 35.24C200.657 35.5867 200.337 36.4 200.151 37.68L198.631 52C198.604 52.32 198.431 52.68 198.111 53.08C197.791 53.5067 197.457 53.8267 197.111 54.04C196.764 54.28 196.471 54.4267 196.231 54.48C195.751 54.5867 195.537 54.4267 195.591 54L197.071 40C197.071 39.9467 197.084 39.84 197.111 39.68L197.711 33.88ZM211.164 21.88C211.191 21.56 211.364 21.1867 211.684 20.76C212.004 20.3333 212.337 20.0133 212.684 19.8C213.031 19.56 213.311 19.4133 213.524 19.36C214.004 19.2267 214.231 19.3733 214.204 19.8L211.244 51.96C211.217 52.2533 211.044 52.6133 210.724 53.04C210.404 53.4933 210.071 53.8267 209.724 54.04C209.377 54.28 209.097 54.4267 208.884 54.48C208.404 54.6133 208.177 54.4667 208.204 54.04L211.164 21.88ZM219.267 43.64C219.16 48.5733 221.307 51.1867 225.707 51.48C226.64 51.56 227.48 51.5333 228.227 51.4C229.187 51.24 229.72 51.0533 229.827 50.84C230.04 50.44 230.347 50.0533 230.747 49.68C231.174 49.3067 231.56 49.0667 231.907 48.96C232.254 48.8267 232.494 48.8667 232.627 49.08C232.814 49.4267 232.56 50.0533 231.867 50.96C231.174 51.8667 230.454 52.5733 229.707 53.08C228.987 53.6133 228.28 53.9733 227.587 54.16C226.04 54.5867 224.64 54.7067 223.387 54.52C218.134 54.1733 215.774 50.8533 216.307 44.56C216.467 42.6133 216.76 40.9333 217.187 39.52C217.614 38.08 218.294 36.7333 219.227 35.48C221.36 32.6 224.014 31.2267 227.187 31.36C232.227 31.5467 234.334 34.8933 233.507 41.4C233.267 42.4667 232.734 43.2267 231.907 43.68C231.587 43.8667 231.24 43.9467 230.867 43.92L219.267 43.64ZM219.547 40.64C219.734 40.5867 219.88 40.56 219.987 40.56L230.627 40.8C230.547 36.6667 228.64 34.5333 224.907 34.4C223.094 34.32 221.88 34.7067 221.267 35.56C220.467 36.6267 219.894 38.32 219.547 40.64ZM247.722 49.76C248.068 49.68 248.268 49.7733 248.322 50.04C248.375 50.28 248.268 50.6133 248.002 51.04C247.735 51.44 247.215 51.96 246.442 52.6C245.668 53.2133 244.815 53.72 243.882 54.12C242.042 54.8667 240.668 54.68 239.762 53.56C238.908 52.5733 238.682 50.6933 239.082 47.92L240.122 35.88H237.082C236.682 35.88 236.575 35.6267 236.762 35.12C236.975 34.4533 237.375 33.9067 237.962 33.48C238.575 33.0267 239.028 32.8 239.322 32.8H240.402L241.002 25.96C241.028 25.6667 241.202 25.3067 241.522 24.88C241.842 24.4533 242.175 24.12 242.522 23.88C242.868 23.64 243.148 23.4933 243.362 23.44C243.842 23.3067 244.068 23.4533 244.042 23.88L243.282 32.8C244.455 32.8 245.615 32.8 246.762 32.8C247.162 32.8 247.268 33.0667 247.082 33.6C246.868 34.2667 246.455 34.8133 245.842 35.24C245.255 35.6667 244.815 35.88 244.522 35.88H243.002L242.122 45.88C242.122 45.9067 242.122 45.9333 242.122 45.96C241.748 48.36 241.922 49.96 242.642 50.76C243.308 51.5867 244.122 51.7867 245.082 51.36C245.535 51.1467 246.002 50.84 246.482 50.44C246.988 50.04 247.402 49.8133 247.722 49.76ZM254.246 21.88C254.273 21.56 254.446 21.1867 254.766 20.76C255.086 20.3333 255.42 20.0133 255.766 19.8C256.113 19.56 256.393 19.4133 256.606 19.36C257.086 19.2267 257.313 19.3733 257.286 19.8L255.926 34.8C256.753 33.8133 257.713 33 258.806 32.36C259.926 31.6933 261.046 31.36 262.166 31.36C266.726 31.3067 268.673 34.44 268.006 40.76L267.046 51.96C267.02 52.2533 266.846 52.6133 266.526 53.04C266.206 53.4667 265.873 53.8 265.526 54.04C265.18 54.28 264.9 54.4267 264.686 54.48C264.206 54.6133 263.98 54.4667 264.006 54.04L264.966 42.84C265.58 37.1867 263.926 34.3733 260.006 34.4C259.233 34.4 258.66 34.5067 258.286 34.72C257.353 35.2533 256.486 36.72 255.686 39.12C255.633 39.28 255.553 39.4533 255.446 39.64L254.326 51.96C254.3 52.2533 254.126 52.6133 253.806 53.04C253.486 53.4933 253.153 53.8267 252.806 54.04C252.46 54.28 252.18 54.4267 251.966 54.48C251.486 54.6133 251.26 54.4667 251.286 54.04L254.246 21.88ZM155.48 91.96C155.453 92.28 155.28 92.64 154.96 93.04C154.64 93.4667 154.307 93.8 153.96 94.04C153.613 94.28 153.333 94.4267 153.12 94.48C152.64 94.6133 152.413 94.4667 152.44 94.04L154.56 69.36L144.68 86.76C144.12 87.5867 143.627 88.1467 143.2 88.44C142.8 88.7333 142.507 88.8667 142.32 88.84C142.16 88.7867 142.027 88.6267 141.92 88.36L134.88 70.96L132.68 92C132.653 92.32 132.48 92.68 132.16 93.08C131.84 93.5067 131.507 93.8267 131.16 94.04C130.813 94.28 130.533 94.4267 130.32 94.48C129.84 94.5867 129.613 94.4267 129.64 94L132.64 65.2C132.667 64.88 132.933 64.5333 133.44 64.16C133.947 63.7867 134.44 63.48 134.92 63.24L135.64 62.88L144.12 83.92L155.16 64.52C155.8 63.4267 156.533 62.9067 157.36 62.96C157.547 62.96 157.747 63.0267 157.96 63.16L155.48 91.96ZM171.814 71.36C176.721 71.7867 178.694 75.8 177.734 83.4C177.334 86.44 176.441 88.88 175.054 90.72C172.921 93.5467 170.267 94.8133 167.094 94.52C161.707 94.04 159.427 90.5733 160.254 84.12C160.494 82.28 160.841 80.6667 161.294 79.28C161.774 77.8933 162.481 76.6 163.414 75.4C165.681 72.4133 168.481 71.0667 171.814 71.36ZM169.494 74.4C167.467 74.2133 166.094 74.6 165.374 75.56C164.974 76.0667 164.574 76.9067 164.174 78.08C163.774 79.2267 163.481 80.5733 163.294 82.12C162.547 87.9333 164.587 91.0533 169.414 91.48C171.254 91.64 172.467 91.3333 173.054 90.56C173.347 90.16 173.654 89.5067 173.974 88.6C174.294 87.6667 174.534 86.6 174.694 85.4C175.601 78.44 173.867 74.7733 169.494 74.4ZM192.058 89.76C192.404 89.68 192.604 89.7733 192.658 90.04C192.711 90.28 192.604 90.6133 192.338 91.04C192.071 91.44 191.551 91.96 190.778 92.6C190.004 93.2133 189.151 93.72 188.218 94.12C186.378 94.8667 185.004 94.68 184.098 93.56C183.244 92.5733 183.018 90.6933 183.418 87.92L184.458 75.88H181.418C181.018 75.88 180.911 75.6267 181.098 75.12C181.311 74.4533 181.711 73.9067 182.298 73.48C182.911 73.0267 183.364 72.8 183.658 72.8H184.738L185.338 65.96C185.364 65.6667 185.538 65.3067 185.858 64.88C186.178 64.4533 186.511 64.12 186.858 63.88C187.204 63.64 187.484 63.4933 187.698 63.44C188.178 63.3067 188.404 63.4533 188.378 63.88L187.618 72.8C188.791 72.8 189.951 72.8 191.098 72.8C191.498 72.8 191.604 73.0667 191.418 73.6C191.204 74.2667 190.791 74.8133 190.178 75.24C189.591 75.6667 189.151 75.88 188.858 75.88H187.338L186.458 85.88C186.458 85.9067 186.458 85.9333 186.458 85.96C186.084 88.36 186.258 89.96 186.978 90.76C187.644 91.5867 188.458 91.7867 189.418 91.36C189.871 91.1467 190.338 90.84 190.818 90.44C191.324 90.04 191.738 89.8133 192.058 89.76ZM198.062 73.88C198.089 73.5867 198.262 73.2267 198.582 72.8C198.902 72.3733 199.236 72.0533 199.582 71.84C199.929 71.6 200.222 71.4533 200.462 71.4C200.942 71.2933 201.156 71.44 201.102 71.84L198.982 92C198.956 92.32 198.782 92.68 198.462 93.08C198.142 93.5067 197.809 93.8267 197.462 94.04C197.116 94.28 196.822 94.4267 196.582 94.48C196.102 94.5867 195.889 94.4267 195.942 94L198.062 73.88ZM198.262 67C198.289 66.7067 198.449 66.3467 198.742 65.92C199.062 65.4933 199.396 65.16 199.742 64.92C200.089 64.68 200.382 64.5333 200.622 64.48C201.102 64.3467 201.329 64.4933 201.302 64.92L201.102 67.72C201.076 68.0133 200.902 68.3733 200.582 68.8C200.289 69.2267 199.969 69.56 199.622 69.8C199.276 70.04 198.982 70.1867 198.742 70.24C198.262 70.3733 198.036 70.2267 198.062 69.8L198.262 67ZM207.359 73.88C207.413 73.5867 207.613 73.2267 207.959 72.8C208.333 72.3733 208.693 72.0533 209.039 71.84C209.413 71.6 209.719 71.4533 209.959 71.4C210.466 71.2933 210.666 71.44 210.559 71.84L210.039 74.48C210.866 73.6267 211.839 72.8933 212.959 72.28C214.079 71.6667 215.199 71.36 216.319 71.36C220.879 71.3067 222.559 74.44 221.359 80.76L219.399 91.96C219.346 92.2533 219.146 92.6133 218.799 93.04C218.453 93.4667 218.093 93.8 217.719 94.04C217.346 94.28 217.053 94.4267 216.839 94.48C216.333 94.6133 216.119 94.4667 216.199 94.04L218.119 82.84C219.239 77.1867 217.839 74.3733 213.919 74.4C213.146 74.4 212.559 74.5067 212.159 74.72C211.173 75.2533 210.173 76.72 209.159 79.12C209.159 79.1467 209.159 79.1867 209.159 79.24L206.679 92C206.626 92.32 206.413 92.68 206.039 93.08C205.693 93.5067 205.333 93.8267 204.959 94.04C204.613 94.28 204.319 94.4267 204.079 94.48C203.573 94.5867 203.373 94.4267 203.479 94L207.359 73.88ZM214.959 64.92C215.626 64.0667 216.333 63.5467 217.079 63.36C217.559 63.2267 217.773 63.3733 217.719 63.8C217.719 63.8267 217.706 63.9067 217.679 64.04C217.653 64.1467 217.639 64.2267 217.639 64.28C217.639 64.3067 217.613 64.3867 217.559 64.52C217.533 64.6267 217.506 64.72 217.479 64.8C217.453 64.8533 217.413 64.9467 217.359 65.08C217.333 65.1867 217.279 65.2933 217.199 65.4C217.146 65.5067 217.093 65.6133 217.039 65.72C216.559 66.4667 216.026 67.04 215.439 67.44C214.879 67.84 214.479 68.0933 214.239 68.2C213.999 68.28 213.719 68.32 213.399 68.32C212.946 68.2933 212.626 68.2267 212.439 68.12L210.919 67.24L209.359 66.44C208.719 67.2933 208.039 67.84 207.319 68.08C206.786 68.2667 206.519 68.1733 206.519 67.8C206.519 67.8 206.533 67.72 206.559 67.56C206.533 67.4 206.519 67.28 206.519 67.2C206.519 67.12 206.533 66.9867 206.559 66.8C206.586 66.5867 206.626 66.4133 206.679 66.28C206.759 66.12 206.853 65.9333 206.959 65.72C207.066 65.48 207.199 65.2667 207.359 65.08C208.053 64.28 208.853 63.6533 209.759 63.2C210.213 62.9867 210.586 62.9067 210.879 62.96C211.199 63.0133 211.373 63.04 211.399 63.04C211.453 63.04 211.479 63.0533 211.479 63.08L213.839 64.28L214.959 64.92ZM235.838 71.36C240.744 71.7867 242.718 75.8 241.758 83.4C241.358 86.44 240.464 88.88 239.078 90.72C236.944 93.5467 234.291 94.8133 231.118 94.52C225.731 94.04 223.451 90.5733 224.278 84.12C224.518 82.28 224.864 80.6667 225.318 79.28C225.798 77.8933 226.504 76.6 227.438 75.4C229.704 72.4133 232.504 71.0667 235.838 71.36ZM233.518 74.4C231.491 74.2133 230.118 74.6 229.398 75.56C228.998 76.0667 228.598 76.9067 228.198 78.08C227.798 79.2267 227.504 80.5733 227.317 82.12C226.571 87.9333 228.611 91.0533 233.438 91.48C235.278 91.64 236.491 91.3333 237.078 90.56C237.371 90.16 237.678 89.5067 237.998 88.6C238.318 87.6667 238.558 86.6 238.718 85.4C239.624 78.44 237.891 74.7733 233.518 74.4ZM256 65.24C256.027 64.9467 256.267 64.4933 256.72 63.88C257.174 63.2667 257.72 62.88 258.36 62.72C258.494 62.6933 258.587 62.68 258.64 62.68C258.694 62.68 258.747 62.68 258.8 62.68H274.56C274.96 62.68 275.067 62.9333 274.88 63.44C274.667 64.1067 274.254 64.6533 273.64 65.08C273.054 65.5067 272.614 65.72 272.32 65.72H258.84L257.88 76.92C262.414 76.92 266.96 76.92 271.52 76.92C271.92 76.92 272.027 77.1733 271.84 77.68C271.627 78.3467 271.214 78.8933 270.6 79.32C270.014 79.7467 269.574 79.96 269.28 79.96C265.387 79.96 261.494 79.96 257.6 79.96L256.6 91.88C256.627 92.44 256.227 93.08 255.4 93.8C255.107 94.0667 254.774 94.2667 254.4 94.4C254.054 94.56 253.814 94.5733 253.68 94.44C253.574 94.3333 253.534 94.1733 253.56 93.96L256 65.24Z" fill="#07117E"/>
</svg>
