<svg width="311" height="120" viewBox="0 0 311 120" fill="none" xmlns="http://www.w3.org/2000/svg">
<circle cx="60" cy="60" r="60" fill="#07117E"/>
<path d="M58.8746 20.2058L55.0516 18L58.8746 15.7941C59.0901 15.6698 59.1638 15.3948 59.0394 15.1793L58.1389 13.6204C58.0146 13.4052 57.7392 13.3312 57.5238 13.4556L53.7008 15.6614V11.25C53.7008 11.0014 53.4991 10.8 53.2505 10.8H51.4493C51.2007 10.8 50.9991 11.0014 50.9991 11.25V15.6617L47.176 13.4558C46.9606 13.3315 46.6853 13.4055 46.5609 13.6206L45.6604 15.1793C45.5361 15.3945 45.6098 15.6698 45.8252 15.7941L49.6482 18L45.8252 20.2058C45.6098 20.3301 45.5361 20.6055 45.6604 20.8206L46.5609 22.3796C46.6853 22.5948 46.9606 22.6685 47.176 22.5444L50.9991 20.3386V24.75C50.9991 24.9986 51.2007 25.2 51.4493 25.2H53.2505C53.4991 25.2 53.7008 24.9986 53.7008 24.75V20.3383L57.5238 22.5441C57.7392 22.6685 58.0146 22.5948 58.1389 22.3793L59.0394 20.8204C59.1638 20.6052 59.0901 20.3301 58.8746 20.2058Z" fill="#FFFEF3"/>
<path d="M95.6995 54.5411L90.6022 51.6L95.6995 48.6589C95.9868 48.4931 96.085 48.1264 95.9193 47.8391L94.7185 45.7605C94.5528 45.4736 94.1857 45.375 93.8984 45.5408L88.801 48.4819V42.6C88.801 42.2685 88.5322 42 88.2007 42H85.7992C85.4677 42 85.1988 42.2685 85.1988 42.6V48.4823L80.1014 45.5411C79.8142 45.3754 79.447 45.474 79.2813 45.7609L78.0805 47.8391C77.9148 48.126 78.013 48.4931 78.3003 48.6589L83.3977 51.6L78.3003 54.5411C78.013 54.7069 77.9148 55.074 78.0805 55.3609L79.2813 57.4395C79.447 57.7264 79.8142 57.8246 80.1014 57.6593L85.1988 54.7181V60.6C85.1988 60.9315 85.4677 61.2 85.7992 61.2H88.2007C88.5322 61.2 88.801 60.9315 88.801 60.6V54.7178L93.8984 57.6589C94.1857 57.8246 94.5528 57.7264 94.7185 57.4391L95.9193 55.3605C96.085 55.0736 95.9868 54.7069 95.6995 54.5411Z" fill="#FFFEF3"/>
<path d="M91.2555 29.1955L83.2909 24.6L91.2555 20.0045C91.7043 19.7455 91.8579 19.1724 91.5989 18.7236L89.7227 15.4758C89.4637 15.0275 88.8901 14.8734 88.4412 15.1324L80.4766 19.7279V10.5375C80.4766 10.0195 80.0565 9.59998 79.5385 9.59998H75.7862C75.2682 9.59998 74.8481 10.0195 74.8481 10.5375V19.7285L66.8834 15.133C66.4346 14.874 65.861 15.0281 65.602 15.4763L63.7258 18.7236C63.4668 19.1719 63.6203 19.7455 64.0692 20.0045L72.0338 24.6L64.0692 29.1955C63.6203 29.4545 63.4668 30.0281 63.7258 30.4763L65.602 33.7242C65.861 34.1724 66.4346 34.326 66.8834 34.0676L74.8481 29.472V38.6625C74.8481 39.1804 75.2682 39.6 75.7862 39.6H79.5385C80.0565 39.6 80.4766 39.1804 80.4766 38.6625V29.4715L88.4412 34.067C88.8901 34.326 89.4637 34.1724 89.7227 33.7236L91.5989 30.4758C91.8579 30.0275 91.7043 29.4545 91.2555 29.1955Z" fill="#FFFEF3"/>
<path d="M73.8908 78.9769C70.2476 74.2853 64.7739 71.6672 59.0524 71.5596C58.206 71.5436 57.8015 72.5918 58.4297 73.1443C65.5735 79.4265 65.1463 90.6216 57.6553 96.4385C53.3403 99.7892 47.5886 100.573 42.5529 98.4989C41.7767 98.1792 41.0117 99.0052 41.3981 99.7535C41.94 100.802 42.5767 101.799 43.3005 102.731C49.8202 111.127 61.9535 112.629 70.407 106.064C78.8497 99.5084 80.4188 87.3836 73.8908 78.9769Z" fill="#FFFEF3"/>
<path d="M41.8553 71.8793C46.6032 74.6536 52.238 74.9651 57.2388 73.0022C57.9785 72.7118 57.975 71.6541 57.243 71.3989C48.9199 68.4983 45.504 58.5997 50.0362 50.8437C52.6469 46.3759 57.3723 43.626 62.4431 43.6216C63.2247 43.621 63.6091 42.6269 63.0208 42.1145C62.1959 41.3964 61.3063 40.7576 60.363 40.2062C51.8663 35.2413 40.8308 38.2954 35.7163 47.0481C30.6083 55.7897 33.3478 66.908 41.8553 71.8793Z" fill="#FFFEF3"/>
<mask id="path-7-outside-1_178_91" maskUnits="userSpaceOnUse" x="130" y="22" width="158" height="77" fill="black">
<rect fill="white" x="130" y="22" width="158" height="77"/>
<path d="M138.56 50.98C136.213 50.98 134.44 50.4733 133.24 49.46C132.053 48.4467 131.38 46.86 131.22 44.7C131.193 44.2867 131.293 43.9667 131.52 43.74C131.747 43.5133 132.06 43.4 132.46 43.4C132.86 43.4 133.16 43.5067 133.36 43.72C133.573 43.9333 133.707 44.24 133.76 44.64C133.853 46.0667 134.26 47.06 134.98 47.62C135.7 48.18 136.893 48.46 138.56 48.46H144.32C146.16 48.46 147.427 48.1133 148.12 47.42C148.827 46.7133 149.18 45.4533 149.18 43.64C149.18 41.8 148.82 40.5333 148.1 39.84C147.393 39.1333 146.133 38.78 144.32 38.78H139.02C136.607 38.78 134.833 38.2133 133.7 37.08C132.567 35.9333 132 34.16 132 31.76C132 29.36 132.56 27.6 133.68 26.48C134.813 25.3467 136.58 24.78 138.98 24.78H144.3C146.5 24.78 148.16 25.26 149.28 26.22C150.413 27.1667 151.06 28.6533 151.22 30.68C151.26 31.08 151.167 31.4 150.94 31.64C150.713 31.8667 150.393 31.98 149.98 31.98C149.593 31.98 149.293 31.8733 149.08 31.66C148.867 31.4333 148.74 31.1267 148.7 30.74C148.593 29.4467 148.207 28.5533 147.54 28.06C146.873 27.5533 145.793 27.3 144.3 27.3H138.98C137.273 27.3 136.1 27.6267 135.46 28.28C134.833 28.92 134.52 30.08 134.52 31.76C134.52 33.44 134.84 34.6133 135.48 35.28C136.133 35.9333 137.313 36.26 139.02 36.26H144.32C146.84 36.26 148.7 36.86 149.9 38.06C151.1 39.2467 151.7 41.1067 151.7 43.64C151.7 46.16 151.1 48.0133 149.9 49.2C148.713 50.3867 146.853 50.98 144.32 50.98H138.56ZM160.054 51C159.214 51 158.794 50.58 158.794 49.74V24.38C158.794 23.54 159.214 23.12 160.054 23.12C160.894 23.12 161.314 23.54 161.314 24.38V40.46L171.254 31.92C171.881 31.3733 172.467 31.4133 173.014 32.04C173.574 32.6667 173.534 33.26 172.894 33.82L165.554 40.14L173.214 48.84C173.774 49.48 173.741 50.0733 173.114 50.62C172.487 51.1667 171.894 51.1267 171.334 50.5L163.634 41.8L161.314 43.78V49.74C161.314 50.58 160.894 51 160.054 51ZM184.145 51C182.025 51 180.459 50.4933 179.445 49.48C178.432 48.4667 177.925 46.9 177.925 44.78C177.925 42.6467 178.432 41.0733 179.445 40.06C180.459 39.0467 182.025 38.54 184.145 38.54H193.045C192.992 36.9 192.599 35.76 191.865 35.12C191.145 34.48 189.905 34.16 188.145 34.16H185.825C184.252 34.16 183.092 34.3133 182.345 34.62C181.612 34.9133 181.139 35.4267 180.925 36.16C180.792 36.56 180.625 36.8533 180.425 37.04C180.239 37.2133 179.952 37.3 179.565 37.3C179.152 37.3 178.825 37.1867 178.585 36.96C178.359 36.72 178.279 36.4 178.345 36C178.599 34.48 179.339 33.3733 180.565 32.68C181.792 31.9867 183.545 31.64 185.825 31.64H188.145C190.705 31.64 192.579 32.24 193.765 33.44C194.965 34.6267 195.565 36.5 195.565 39.06V49.74C195.565 50.58 195.145 51 194.305 51C193.465 51 193.045 50.58 193.045 49.74V48.1C191.725 50.0333 189.505 51 186.385 51H184.145ZM184.145 48.48H186.385C187.585 48.48 188.652 48.3533 189.585 48.1C190.532 47.8467 191.305 47.4267 191.905 46.84C192.519 46.2533 192.899 45.46 193.045 44.46V41.06H184.145C182.719 41.06 181.745 41.32 181.225 41.84C180.705 42.36 180.445 43.34 180.445 44.78C180.445 46.2067 180.705 47.18 181.225 47.7C181.745 48.22 182.719 48.48 184.145 48.48ZM204.195 51C203.355 51 202.935 50.58 202.935 49.74V32.9C202.935 32.06 203.355 31.64 204.195 31.64C205.035 31.64 205.455 32.06 205.455 32.9V35.46C206.188 34.22 207.195 33.2733 208.475 32.62C209.755 31.9667 211.255 31.64 212.975 31.64C213.815 31.64 214.235 32.06 214.235 32.9C214.235 33.74 213.815 34.16 212.975 34.16C210.628 34.16 208.815 34.66 207.535 35.66C206.268 36.66 205.575 38.0533 205.455 39.84V49.74C205.455 50.58 205.035 51 204.195 51ZM224.357 51C222.424 51 220.99 50.54 220.057 49.62C219.137 48.6867 218.677 47.26 218.677 45.34V24.38C218.677 23.54 219.097 23.12 219.937 23.12C220.777 23.12 221.197 23.54 221.197 24.38V45.34C221.197 46.5533 221.417 47.38 221.857 47.82C222.297 48.26 223.124 48.48 224.337 48.48C225.204 48.48 225.637 48.9 225.637 49.74C225.664 50.58 225.237 51 224.357 51ZM232.079 42.32V43.62C232.079 45.4467 232.433 46.7133 233.139 47.42C233.859 48.1267 235.139 48.48 236.979 48.48H240.259C241.846 48.48 242.999 48.2933 243.719 47.92C244.453 47.5467 244.899 46.9 245.059 45.98C245.153 45.58 245.299 45.28 245.499 45.08C245.699 44.88 245.999 44.78 246.399 44.78C246.813 44.78 247.126 44.8933 247.339 45.12C247.566 45.3333 247.646 45.6533 247.579 46.08C247.366 47.7467 246.653 48.9867 245.439 49.8C244.239 50.6 242.513 51 240.259 51H236.979C234.433 51 232.559 50.4 231.359 49.2C230.159 48 229.559 46.14 229.559 43.62V39.06C229.559 36.4733 230.159 34.5867 231.359 33.4C232.559 32.2 234.433 31.6133 236.979 31.64H240.259C242.819 31.64 244.693 32.24 245.879 33.44C247.079 34.6267 247.679 36.5 247.679 39.06V41.06C247.679 41.9 247.259 42.32 246.419 42.32H232.079ZM236.979 34.16C235.139 34.1333 233.859 34.4733 233.139 35.18C232.433 35.8867 232.079 37.18 232.079 39.06V39.8H245.159V39.06C245.159 37.2067 244.806 35.9267 244.099 35.22C243.393 34.5133 242.113 34.16 240.259 34.16H236.979ZM261.989 51C259.469 51 257.623 50.4133 256.449 49.24C255.276 48.0667 254.689 46.2333 254.689 43.74V34.16H252.449C251.609 34.16 251.189 33.74 251.189 32.9C251.189 32.06 251.609 31.64 252.449 31.64H254.689V27.8C254.689 26.96 255.109 26.54 255.949 26.54C256.789 26.54 257.209 26.96 257.209 27.8V31.64H262.089C262.929 31.64 263.349 32.06 263.349 32.9C263.349 33.74 262.929 34.16 262.089 34.16H257.209V43.74C257.209 45.54 257.556 46.78 258.249 47.46C258.943 48.14 260.189 48.48 261.989 48.48C262.429 48.48 262.749 48.5867 262.949 48.8C263.163 49 263.269 49.3133 263.269 49.74C263.269 50.58 262.843 51 261.989 51ZM270.406 51C269.566 51 269.146 50.58 269.146 49.74V24.38C269.146 23.54 269.566 23.12 270.406 23.12C271.246 23.12 271.666 23.54 271.666 24.38V34.38C272.986 32.5533 275.206 31.64 278.326 31.64H279.446C282.006 31.64 283.879 32.24 285.066 33.44C286.266 34.6267 286.866 36.5 286.866 39.06V49.74C286.866 50.58 286.446 51 285.606 51C284.766 51 284.346 50.58 284.346 49.74V39.06C284.346 37.2067 283.986 35.9267 283.266 35.22C282.559 34.5133 281.286 34.16 279.446 34.16H278.326C276.419 34.16 274.872 34.44 273.686 35C272.499 35.56 271.826 36.4333 271.666 37.62V49.74C271.666 50.58 271.246 51 270.406 51ZM133.14 98C132.3 98 131.88 97.58 131.88 96.74V73.04C131.88 72.2 132.3 71.78 133.14 71.78C133.727 71.78 134.2 72.0533 134.56 72.6L144.34 87.48L143.78 87.56L153.6 72.6C153.947 72.0533 154.453 71.78 155.12 71.78C155.84 71.78 156.2 72.2 156.2 73.04V96.74C156.2 97.58 155.78 98 154.94 98C154.1 98 153.68 97.58 153.68 96.74V75.56L154.44 75.82L145.48 89.32C145.12 89.8667 144.613 90.14 143.96 90.14C143.44 90.14 143 89.8667 142.64 89.32L133.68 75.82L134.4 76.06V96.74C134.4 97.58 133.98 98 133.14 98ZM170.69 98C168.144 98 166.27 97.4 165.07 96.2C163.87 95 163.27 93.14 163.27 90.62V86.06C163.27 83.4867 163.87 81.6067 165.07 80.42C166.27 79.22 168.144 78.6267 170.69 78.64H173.97C176.53 78.64 178.404 79.24 179.59 80.44C180.79 81.6267 181.39 83.5 181.39 86.06V90.58C181.39 93.1267 180.79 95 179.59 96.2C178.404 97.4 176.53 98 173.97 98H170.69ZM165.79 90.62C165.79 92.4467 166.144 93.7133 166.85 94.42C167.57 95.1267 168.85 95.48 170.69 95.48H173.97C175.824 95.48 177.104 95.1267 177.81 94.42C178.517 93.7 178.87 92.42 178.87 90.58V86.06C178.87 84.2067 178.517 82.9267 177.81 82.22C177.104 81.5133 175.824 81.16 173.97 81.16H170.69C169.464 81.1467 168.49 81.2933 167.77 81.6C167.064 81.8933 166.557 82.4 166.25 83.12C165.944 83.8267 165.79 84.8067 165.79 86.06V90.62ZM195.7 98C193.18 98 191.334 97.4133 190.16 96.24C188.987 95.0667 188.4 93.2333 188.4 90.74V81.16H186.16C185.32 81.16 184.9 80.74 184.9 79.9C184.9 79.06 185.32 78.64 186.16 78.64H188.4V74.8C188.4 73.96 188.82 73.54 189.66 73.54C190.5 73.54 190.92 73.96 190.92 74.8V78.64H195.8C196.64 78.64 197.06 79.06 197.06 79.9C197.06 80.74 196.64 81.16 195.8 81.16H190.92V90.74C190.92 92.54 191.267 93.78 191.96 94.46C192.654 95.14 193.9 95.48 195.7 95.48C196.14 95.48 196.46 95.5867 196.66 95.8C196.874 96 196.98 96.3133 196.98 96.74C196.98 97.58 196.554 98 195.7 98ZM203.637 75.12C202.597 75.12 202.077 74.5933 202.077 73.54V72.54C202.077 71.5133 202.597 71 203.637 71H204.617C205.617 71 206.117 71.5133 206.117 72.54V73.54C206.117 74.5933 205.617 75.12 204.617 75.12H203.637ZM204.117 98C203.277 98 202.857 97.58 202.857 96.74V79.9C202.857 79.06 203.277 78.64 204.117 78.64C204.957 78.64 205.377 79.06 205.377 79.9V96.74C205.377 97.58 204.957 98 204.117 98ZM214.39 98C213.55 98 213.13 97.58 213.13 96.74V79.9C213.13 79.06 213.55 78.64 214.39 78.64C215.23 78.64 215.65 79.06 215.65 79.9V81.38C216.97 79.5533 219.19 78.64 222.31 78.64H223.43C225.99 78.64 227.863 79.24 229.05 80.44C230.25 81.6267 230.85 83.5 230.85 86.06V96.74C230.85 97.58 230.43 98 229.59 98C228.75 98 228.33 97.58 228.33 96.74V86.06C228.33 84.2067 227.97 82.9267 227.25 82.22C226.543 81.5133 225.27 81.16 223.43 81.16H222.31C220.403 81.16 218.857 81.44 217.67 82C216.483 82.56 215.81 83.4333 215.65 84.62V96.74C215.65 97.58 215.23 98 214.39 98ZM225.45 75.76C224.65 75.76 224.01 75.58 223.53 75.22C223.05 74.8467 222.663 74.5133 222.37 74.22C222.063 73.8867 221.797 73.6467 221.57 73.5C221.343 73.3533 221.057 73.28 220.71 73.28C220.19 73.28 219.81 73.4267 219.57 73.72C219.343 74.0133 219.15 74.38 218.99 74.82C218.883 75.1 218.73 75.3267 218.53 75.5C218.33 75.66 218.043 75.6867 217.67 75.58C217.23 75.4867 216.963 75.2933 216.87 75C216.79 74.7067 216.803 74.4267 216.91 74.16C217.27 73.16 217.757 72.4 218.37 71.88C218.997 71.36 219.77 71.1 220.69 71.1C221.543 71.1 222.217 71.2867 222.71 71.66C223.217 72.0333 223.623 72.38 223.93 72.7C224.29 73.0467 224.563 73.28 224.75 73.4C224.95 73.5067 225.177 73.56 225.43 73.56C225.857 73.56 226.177 73.4467 226.39 73.22C226.603 72.9933 226.797 72.6333 226.97 72.14C227.103 71.8333 227.257 71.6 227.43 71.44C227.617 71.28 227.897 71.24 228.27 71.32C228.737 71.4 229.003 71.5933 229.07 71.9C229.15 72.2067 229.15 72.4733 229.07 72.7C228.737 73.6733 228.27 74.4267 227.67 74.96C227.083 75.4933 226.343 75.76 225.45 75.76ZM244.987 98C242.441 98 240.567 97.4 239.367 96.2C238.167 95 237.567 93.14 237.567 90.62V86.06C237.567 83.4867 238.167 81.6067 239.367 80.42C240.567 79.22 242.441 78.6267 244.987 78.64H248.267C250.827 78.64 252.701 79.24 253.887 80.44C255.087 81.6267 255.687 83.5 255.687 86.06V90.58C255.687 93.1267 255.087 95 253.887 96.2C252.701 97.4 250.827 98 248.267 98H244.987ZM240.087 90.62C240.087 92.4467 240.441 93.7133 241.147 94.42C241.867 95.1267 243.147 95.48 244.987 95.48H248.267C250.121 95.48 251.401 95.1267 252.107 94.42C252.814 93.7 253.167 92.42 253.167 90.58V86.06C253.167 84.2067 252.814 82.9267 252.107 82.22C251.401 81.5133 250.121 81.16 248.267 81.16H244.987C243.761 81.1467 242.787 81.2933 242.067 81.6C241.361 81.8933 240.854 82.4 240.547 83.12C240.241 83.8267 240.087 84.8067 240.087 86.06V90.62Z"/>
</mask>
<path d="M138.56 50.98C136.213 50.98 134.44 50.4733 133.24 49.46C132.053 48.4467 131.38 46.86 131.22 44.7C131.193 44.2867 131.293 43.9667 131.52 43.74C131.747 43.5133 132.06 43.4 132.46 43.4C132.86 43.4 133.16 43.5067 133.36 43.72C133.573 43.9333 133.707 44.24 133.76 44.64C133.853 46.0667 134.26 47.06 134.98 47.62C135.7 48.18 136.893 48.46 138.56 48.46H144.32C146.16 48.46 147.427 48.1133 148.12 47.42C148.827 46.7133 149.18 45.4533 149.18 43.64C149.18 41.8 148.82 40.5333 148.1 39.84C147.393 39.1333 146.133 38.78 144.32 38.78H139.02C136.607 38.78 134.833 38.2133 133.7 37.08C132.567 35.9333 132 34.16 132 31.76C132 29.36 132.56 27.6 133.68 26.48C134.813 25.3467 136.58 24.78 138.98 24.78H144.3C146.5 24.78 148.16 25.26 149.28 26.22C150.413 27.1667 151.06 28.6533 151.22 30.68C151.26 31.08 151.167 31.4 150.94 31.64C150.713 31.8667 150.393 31.98 149.98 31.98C149.593 31.98 149.293 31.8733 149.08 31.66C148.867 31.4333 148.74 31.1267 148.7 30.74C148.593 29.4467 148.207 28.5533 147.54 28.06C146.873 27.5533 145.793 27.3 144.3 27.3H138.98C137.273 27.3 136.1 27.6267 135.46 28.28C134.833 28.92 134.52 30.08 134.52 31.76C134.52 33.44 134.84 34.6133 135.48 35.28C136.133 35.9333 137.313 36.26 139.02 36.26H144.32C146.84 36.26 148.7 36.86 149.9 38.06C151.1 39.2467 151.7 41.1067 151.7 43.64C151.7 46.16 151.1 48.0133 149.9 49.2C148.713 50.3867 146.853 50.98 144.32 50.98H138.56ZM160.054 51C159.214 51 158.794 50.58 158.794 49.74V24.38C158.794 23.54 159.214 23.12 160.054 23.12C160.894 23.12 161.314 23.54 161.314 24.38V40.46L171.254 31.92C171.881 31.3733 172.467 31.4133 173.014 32.04C173.574 32.6667 173.534 33.26 172.894 33.82L165.554 40.14L173.214 48.84C173.774 49.48 173.741 50.0733 173.114 50.62C172.487 51.1667 171.894 51.1267 171.334 50.5L163.634 41.8L161.314 43.78V49.74C161.314 50.58 160.894 51 160.054 51ZM184.145 51C182.025 51 180.459 50.4933 179.445 49.48C178.432 48.4667 177.925 46.9 177.925 44.78C177.925 42.6467 178.432 41.0733 179.445 40.06C180.459 39.0467 182.025 38.54 184.145 38.54H193.045C192.992 36.9 192.599 35.76 191.865 35.12C191.145 34.48 189.905 34.16 188.145 34.16H185.825C184.252 34.16 183.092 34.3133 182.345 34.62C181.612 34.9133 181.139 35.4267 180.925 36.16C180.792 36.56 180.625 36.8533 180.425 37.04C180.239 37.2133 179.952 37.3 179.565 37.3C179.152 37.3 178.825 37.1867 178.585 36.96C178.359 36.72 178.279 36.4 178.345 36C178.599 34.48 179.339 33.3733 180.565 32.68C181.792 31.9867 183.545 31.64 185.825 31.64H188.145C190.705 31.64 192.579 32.24 193.765 33.44C194.965 34.6267 195.565 36.5 195.565 39.06V49.74C195.565 50.58 195.145 51 194.305 51C193.465 51 193.045 50.58 193.045 49.74V48.1C191.725 50.0333 189.505 51 186.385 51H184.145ZM184.145 48.48H186.385C187.585 48.48 188.652 48.3533 189.585 48.1C190.532 47.8467 191.305 47.4267 191.905 46.84C192.519 46.2533 192.899 45.46 193.045 44.46V41.06H184.145C182.719 41.06 181.745 41.32 181.225 41.84C180.705 42.36 180.445 43.34 180.445 44.78C180.445 46.2067 180.705 47.18 181.225 47.7C181.745 48.22 182.719 48.48 184.145 48.48ZM204.195 51C203.355 51 202.935 50.58 202.935 49.74V32.9C202.935 32.06 203.355 31.64 204.195 31.64C205.035 31.64 205.455 32.06 205.455 32.9V35.46C206.188 34.22 207.195 33.2733 208.475 32.62C209.755 31.9667 211.255 31.64 212.975 31.64C213.815 31.64 214.235 32.06 214.235 32.9C214.235 33.74 213.815 34.16 212.975 34.16C210.628 34.16 208.815 34.66 207.535 35.66C206.268 36.66 205.575 38.0533 205.455 39.84V49.74C205.455 50.58 205.035 51 204.195 51ZM224.357 51C222.424 51 220.99 50.54 220.057 49.62C219.137 48.6867 218.677 47.26 218.677 45.34V24.38C218.677 23.54 219.097 23.12 219.937 23.12C220.777 23.12 221.197 23.54 221.197 24.38V45.34C221.197 46.5533 221.417 47.38 221.857 47.82C222.297 48.26 223.124 48.48 224.337 48.48C225.204 48.48 225.637 48.9 225.637 49.74C225.664 50.58 225.237 51 224.357 51ZM232.079 42.32V43.62C232.079 45.4467 232.433 46.7133 233.139 47.42C233.859 48.1267 235.139 48.48 236.979 48.48H240.259C241.846 48.48 242.999 48.2933 243.719 47.92C244.453 47.5467 244.899 46.9 245.059 45.98C245.153 45.58 245.299 45.28 245.499 45.08C245.699 44.88 245.999 44.78 246.399 44.78C246.813 44.78 247.126 44.8933 247.339 45.12C247.566 45.3333 247.646 45.6533 247.579 46.08C247.366 47.7467 246.653 48.9867 245.439 49.8C244.239 50.6 242.513 51 240.259 51H236.979C234.433 51 232.559 50.4 231.359 49.2C230.159 48 229.559 46.14 229.559 43.62V39.06C229.559 36.4733 230.159 34.5867 231.359 33.4C232.559 32.2 234.433 31.6133 236.979 31.64H240.259C242.819 31.64 244.693 32.24 245.879 33.44C247.079 34.6267 247.679 36.5 247.679 39.06V41.06C247.679 41.9 247.259 42.32 246.419 42.32H232.079ZM236.979 34.16C235.139 34.1333 233.859 34.4733 233.139 35.18C232.433 35.8867 232.079 37.18 232.079 39.06V39.8H245.159V39.06C245.159 37.2067 244.806 35.9267 244.099 35.22C243.393 34.5133 242.113 34.16 240.259 34.16H236.979ZM261.989 51C259.469 51 257.623 50.4133 256.449 49.24C255.276 48.0667 254.689 46.2333 254.689 43.74V34.16H252.449C251.609 34.16 251.189 33.74 251.189 32.9C251.189 32.06 251.609 31.64 252.449 31.64H254.689V27.8C254.689 26.96 255.109 26.54 255.949 26.54C256.789 26.54 257.209 26.96 257.209 27.8V31.64H262.089C262.929 31.64 263.349 32.06 263.349 32.9C263.349 33.74 262.929 34.16 262.089 34.16H257.209V43.74C257.209 45.54 257.556 46.78 258.249 47.46C258.943 48.14 260.189 48.48 261.989 48.48C262.429 48.48 262.749 48.5867 262.949 48.8C263.163 49 263.269 49.3133 263.269 49.74C263.269 50.58 262.843 51 261.989 51ZM270.406 51C269.566 51 269.146 50.58 269.146 49.74V24.38C269.146 23.54 269.566 23.12 270.406 23.12C271.246 23.12 271.666 23.54 271.666 24.38V34.38C272.986 32.5533 275.206 31.64 278.326 31.64H279.446C282.006 31.64 283.879 32.24 285.066 33.44C286.266 34.6267 286.866 36.5 286.866 39.06V49.74C286.866 50.58 286.446 51 285.606 51C284.766 51 284.346 50.58 284.346 49.74V39.06C284.346 37.2067 283.986 35.9267 283.266 35.22C282.559 34.5133 281.286 34.16 279.446 34.16H278.326C276.419 34.16 274.872 34.44 273.686 35C272.499 35.56 271.826 36.4333 271.666 37.62V49.74C271.666 50.58 271.246 51 270.406 51ZM133.14 98C132.3 98 131.88 97.58 131.88 96.74V73.04C131.88 72.2 132.3 71.78 133.14 71.78C133.727 71.78 134.2 72.0533 134.56 72.6L144.34 87.48L143.78 87.56L153.6 72.6C153.947 72.0533 154.453 71.78 155.12 71.78C155.84 71.78 156.2 72.2 156.2 73.04V96.74C156.2 97.58 155.78 98 154.94 98C154.1 98 153.68 97.58 153.68 96.74V75.56L154.44 75.82L145.48 89.32C145.12 89.8667 144.613 90.14 143.96 90.14C143.44 90.14 143 89.8667 142.64 89.32L133.68 75.82L134.4 76.06V96.74C134.4 97.58 133.98 98 133.14 98ZM170.69 98C168.144 98 166.27 97.4 165.07 96.2C163.87 95 163.27 93.14 163.27 90.62V86.06C163.27 83.4867 163.87 81.6067 165.07 80.42C166.27 79.22 168.144 78.6267 170.69 78.64H173.97C176.53 78.64 178.404 79.24 179.59 80.44C180.79 81.6267 181.39 83.5 181.39 86.06V90.58C181.39 93.1267 180.79 95 179.59 96.2C178.404 97.4 176.53 98 173.97 98H170.69ZM165.79 90.62C165.79 92.4467 166.144 93.7133 166.85 94.42C167.57 95.1267 168.85 95.48 170.69 95.48H173.97C175.824 95.48 177.104 95.1267 177.81 94.42C178.517 93.7 178.87 92.42 178.87 90.58V86.06C178.87 84.2067 178.517 82.9267 177.81 82.22C177.104 81.5133 175.824 81.16 173.97 81.16H170.69C169.464 81.1467 168.49 81.2933 167.77 81.6C167.064 81.8933 166.557 82.4 166.25 83.12C165.944 83.8267 165.79 84.8067 165.79 86.06V90.62ZM195.7 98C193.18 98 191.334 97.4133 190.16 96.24C188.987 95.0667 188.4 93.2333 188.4 90.74V81.16H186.16C185.32 81.16 184.9 80.74 184.9 79.9C184.9 79.06 185.32 78.64 186.16 78.64H188.4V74.8C188.4 73.96 188.82 73.54 189.66 73.54C190.5 73.54 190.92 73.96 190.92 74.8V78.64H195.8C196.64 78.64 197.06 79.06 197.06 79.9C197.06 80.74 196.64 81.16 195.8 81.16H190.92V90.74C190.92 92.54 191.267 93.78 191.96 94.46C192.654 95.14 193.9 95.48 195.7 95.48C196.14 95.48 196.46 95.5867 196.66 95.8C196.874 96 196.98 96.3133 196.98 96.74C196.98 97.58 196.554 98 195.7 98ZM203.637 75.12C202.597 75.12 202.077 74.5933 202.077 73.54V72.54C202.077 71.5133 202.597 71 203.637 71H204.617C205.617 71 206.117 71.5133 206.117 72.54V73.54C206.117 74.5933 205.617 75.12 204.617 75.12H203.637ZM204.117 98C203.277 98 202.857 97.58 202.857 96.74V79.9C202.857 79.06 203.277 78.64 204.117 78.64C204.957 78.64 205.377 79.06 205.377 79.9V96.74C205.377 97.58 204.957 98 204.117 98ZM214.39 98C213.55 98 213.13 97.58 213.13 96.74V79.9C213.13 79.06 213.55 78.64 214.39 78.64C215.23 78.64 215.65 79.06 215.65 79.9V81.38C216.97 79.5533 219.19 78.64 222.31 78.64H223.43C225.99 78.64 227.863 79.24 229.05 80.44C230.25 81.6267 230.85 83.5 230.85 86.06V96.74C230.85 97.58 230.43 98 229.59 98C228.75 98 228.33 97.58 228.33 96.74V86.06C228.33 84.2067 227.97 82.9267 227.25 82.22C226.543 81.5133 225.27 81.16 223.43 81.16H222.31C220.403 81.16 218.857 81.44 217.67 82C216.483 82.56 215.81 83.4333 215.65 84.62V96.74C215.65 97.58 215.23 98 214.39 98ZM225.45 75.76C224.65 75.76 224.01 75.58 223.53 75.22C223.05 74.8467 222.663 74.5133 222.37 74.22C222.063 73.8867 221.797 73.6467 221.57 73.5C221.343 73.3533 221.057 73.28 220.71 73.28C220.19 73.28 219.81 73.4267 219.57 73.72C219.343 74.0133 219.15 74.38 218.99 74.82C218.883 75.1 218.73 75.3267 218.53 75.5C218.33 75.66 218.043 75.6867 217.67 75.58C217.23 75.4867 216.963 75.2933 216.87 75C216.79 74.7067 216.803 74.4267 216.91 74.16C217.27 73.16 217.757 72.4 218.37 71.88C218.997 71.36 219.77 71.1 220.69 71.1C221.543 71.1 222.217 71.2867 222.71 71.66C223.217 72.0333 223.623 72.38 223.93 72.7C224.29 73.0467 224.563 73.28 224.75 73.4C224.95 73.5067 225.177 73.56 225.43 73.56C225.857 73.56 226.177 73.4467 226.39 73.22C226.603 72.9933 226.797 72.6333 226.97 72.14C227.103 71.8333 227.257 71.6 227.43 71.44C227.617 71.28 227.897 71.24 228.27 71.32C228.737 71.4 229.003 71.5933 229.07 71.9C229.15 72.2067 229.15 72.4733 229.07 72.7C228.737 73.6733 228.27 74.4267 227.67 74.96C227.083 75.4933 226.343 75.76 225.45 75.76ZM244.987 98C242.441 98 240.567 97.4 239.367 96.2C238.167 95 237.567 93.14 237.567 90.62V86.06C237.567 83.4867 238.167 81.6067 239.367 80.42C240.567 79.22 242.441 78.6267 244.987 78.64H248.267C250.827 78.64 252.701 79.24 253.887 80.44C255.087 81.6267 255.687 83.5 255.687 86.06V90.58C255.687 93.1267 255.087 95 253.887 96.2C252.701 97.4 250.827 98 248.267 98H244.987ZM240.087 90.62C240.087 92.4467 240.441 93.7133 241.147 94.42C241.867 95.1267 243.147 95.48 244.987 95.48H248.267C250.121 95.48 251.401 95.1267 252.107 94.42C252.814 93.7 253.167 92.42 253.167 90.58V86.06C253.167 84.2067 252.814 82.9267 252.107 82.22C251.401 81.5133 250.121 81.16 248.267 81.16H244.987C243.761 81.1467 242.787 81.2933 242.067 81.6C241.361 81.8933 240.854 82.4 240.547 83.12C240.241 83.8267 240.087 84.8067 240.087 86.06V90.62Z" fill="#07117E"/>
<path d="M133.24 49.46L132.591 50.2205L132.595 50.224L133.24 49.46ZM131.22 44.7L130.222 44.7644L130.223 44.7739L131.22 44.7ZM131.52 43.74L132.227 44.4471L132.227 44.4471L131.52 43.74ZM133.36 43.72L132.63 44.4039L132.641 44.4157L132.653 44.4271L133.36 43.72ZM133.76 44.64L134.758 44.5747L134.756 44.5412L134.751 44.5078L133.76 44.64ZM134.98 47.62L134.366 48.4094L134.366 48.4094L134.98 47.62ZM148.12 47.42L148.827 48.1271L148.827 48.1271L148.12 47.42ZM148.1 39.84L147.393 40.5471L147.4 40.5538L147.406 40.5603L148.1 39.84ZM133.7 37.08L132.989 37.783L132.993 37.7871L133.7 37.08ZM133.68 26.48L134.387 27.1871L134.387 27.1871L133.68 26.48ZM149.28 26.22L148.629 26.9793L148.639 26.9875L149.28 26.22ZM151.22 30.68L150.223 30.7587L150.224 30.7691L150.225 30.7795L151.22 30.68ZM150.94 31.64L151.647 32.3471L151.657 32.337L151.667 32.3266L150.94 31.64ZM149.08 31.66L148.352 32.3454L148.362 32.3564L148.373 32.3671L149.08 31.66ZM148.7 30.74L147.703 30.8222L147.704 30.8326L147.705 30.8429L148.7 30.74ZM147.54 28.06L146.935 28.8562L146.945 28.8638L147.54 28.06ZM135.46 28.28L134.746 27.5802L134.745 27.5804L135.46 28.28ZM135.48 35.28L134.759 35.9725L134.766 35.9799L134.773 35.9871L135.48 35.28ZM149.9 38.06L149.193 38.7671L149.197 38.771L149.9 38.06ZM149.9 49.2L149.197 48.4889L149.193 48.4929L149.9 49.2ZM138.56 49.98C136.337 49.98 134.834 49.4973 133.885 48.696L132.595 50.224C134.046 51.4494 136.09 51.98 138.56 51.98V49.98ZM133.889 48.6995C132.974 47.9178 132.365 46.6253 132.217 44.6261L130.223 44.7739C130.395 47.0947 131.133 48.9756 132.591 50.2205L133.889 48.6995ZM132.218 44.6356C132.211 44.5236 132.224 44.4671 132.229 44.4483C132.234 44.4352 132.233 44.4409 132.227 44.4471L130.813 43.0329C130.327 43.5187 130.183 44.1535 130.222 44.7644L132.218 44.6356ZM132.227 44.4471C132.233 44.4416 132.241 44.4342 132.265 44.4254C132.293 44.4152 132.353 44.4 132.46 44.4V42.4C131.864 42.4 131.271 42.5747 130.813 43.0329L132.227 44.4471ZM132.46 44.4C132.574 44.4 132.631 44.4155 132.65 44.4222C132.663 44.427 132.649 44.4237 132.63 44.4039L134.09 43.0361C133.639 42.5554 133.031 42.4 132.46 42.4V44.4ZM132.653 44.4271C132.666 44.4401 132.735 44.5168 132.769 44.7722L134.751 44.5078C134.679 43.9632 134.481 43.4266 134.067 43.0129L132.653 44.4271ZM132.762 44.7053C132.864 46.2571 133.319 47.595 134.366 48.4094L135.594 46.8306C135.201 46.525 134.843 45.8763 134.758 44.5747L132.762 44.7053ZM134.366 48.4094C135.357 49.1797 136.832 49.46 138.56 49.46V47.46C136.954 47.46 136.043 47.1803 135.594 46.8306L134.366 48.4094ZM138.56 49.46H144.32V47.46H138.56V49.46ZM144.32 49.46C146.217 49.46 147.838 49.1164 148.827 48.1271L147.413 46.7129C147.015 47.1103 146.103 47.46 144.32 47.46V49.46ZM148.827 48.1271C149.825 47.129 150.18 45.522 150.18 43.64H148.18C148.18 45.3846 147.828 46.2977 147.413 46.7129L148.827 48.1271ZM150.18 43.64C150.18 41.7359 149.821 40.1085 148.794 39.1197L147.406 40.5603C147.819 40.9581 148.18 41.8641 148.18 43.64H150.18ZM148.807 39.1329C147.809 38.1347 146.202 37.78 144.32 37.78V39.78C146.065 39.78 146.978 40.1319 147.393 40.5471L148.807 39.1329ZM144.32 37.78H139.02V39.78H144.32V37.78ZM139.02 37.78C136.74 37.78 135.276 37.2422 134.407 36.3729L132.993 37.7871C134.39 39.1844 136.474 39.78 139.02 39.78V37.78ZM134.411 36.377C133.536 35.4919 133 34.0241 133 31.76H131C131 34.2959 131.597 36.3748 132.989 37.783L134.411 36.377ZM133 31.76C133 29.4907 133.532 28.0421 134.387 27.1871L132.973 25.7729C131.588 27.1579 131 29.2293 131 31.76H133ZM134.387 27.1871C135.257 26.3169 136.715 25.78 138.98 25.78V23.78C136.445 23.78 134.369 24.3765 132.973 25.7729L134.387 27.1871ZM138.98 25.78H144.3V23.78H138.98V25.78ZM144.3 25.78C146.375 25.78 147.761 26.2353 148.629 26.9793L149.931 25.4607C148.559 24.2847 146.625 23.78 144.3 23.78V25.78ZM148.639 26.9875C149.498 27.705 150.076 28.8966 150.223 30.7587L152.217 30.6013C152.044 28.41 151.329 26.6284 149.921 25.4525L148.639 26.9875ZM150.225 30.7795C150.235 30.8776 150.224 30.9256 150.22 30.94C150.217 30.9495 150.216 30.9497 150.213 30.9534L151.667 32.3266C152.136 31.8305 152.277 31.2005 152.215 30.5805L150.225 30.7795ZM150.233 30.9329C150.231 30.9347 150.224 30.9424 150.196 30.9524C150.164 30.9638 150.097 30.98 149.98 30.98V32.98C150.578 32.98 151.183 32.8113 151.647 32.3471L150.233 30.9329ZM149.98 30.98C149.877 30.98 149.822 30.9657 149.8 30.9578C149.782 30.9514 149.783 30.9487 149.787 30.9529L148.373 32.3671C148.823 32.8169 149.406 32.98 149.98 32.98V30.98ZM149.808 30.9746C149.779 30.9439 149.718 30.8609 149.695 30.6371L147.705 30.8429C147.762 31.3925 147.954 31.9228 148.352 32.3454L149.808 30.9746ZM149.697 30.6578C149.58 29.2382 149.137 27.9979 148.135 27.2562L146.945 28.8638C147.276 29.1087 147.607 29.6552 147.703 30.8222L149.697 30.6578ZM148.145 27.2638C147.214 26.5559 145.86 26.3 144.3 26.3V28.3C145.726 28.3 146.533 28.5508 146.935 28.8562L148.145 27.2638ZM144.3 26.3H138.98V28.3H144.3V26.3ZM138.98 26.3C137.214 26.3 135.682 26.6243 134.746 27.5802L136.174 28.9798C136.518 28.629 137.332 28.3 138.98 28.3V26.3ZM134.745 27.5804C133.83 28.5149 133.52 30.0229 133.52 31.76H135.52C135.52 30.1371 135.836 29.3251 136.175 28.9796L134.745 27.5804ZM133.52 31.76C133.52 33.5074 133.841 35.0168 134.759 35.9725L136.201 34.5875C135.839 34.2099 135.52 33.3726 135.52 31.76H133.52ZM134.773 35.9871C135.72 36.9343 137.251 37.26 139.02 37.26V35.26C137.376 35.26 136.547 34.9324 136.187 34.5729L134.773 35.9871ZM139.02 37.26H144.32V35.26H139.02V37.26ZM144.32 37.26C146.702 37.26 148.255 37.8289 149.193 38.7671L150.607 37.3529C149.145 35.8911 146.978 35.26 144.32 35.26V37.26ZM149.197 38.771C150.13 39.6937 150.7 41.2413 150.7 43.64H152.7C152.7 40.972 152.07 38.7997 150.603 37.349L149.197 38.771ZM150.7 43.64C150.7 46.0235 150.131 47.5655 149.197 48.489L150.603 49.911C152.069 48.4612 152.7 46.2965 152.7 43.64H150.7ZM149.193 48.4929C148.271 49.4152 146.721 49.98 144.32 49.98V51.98C146.985 51.98 149.156 51.3582 150.607 49.9071L149.193 48.4929ZM144.32 49.98H138.56V51.98H144.32V49.98ZM161.314 40.46H160.314V42.6375L161.966 41.2185L161.314 40.46ZM171.254 31.92L171.906 32.6785L171.911 32.6736L171.254 31.92ZM173.014 32.04L172.26 32.6974L172.268 32.7063L173.014 32.04ZM172.894 33.82L173.547 34.5778L173.553 34.5726L172.894 33.82ZM165.554 40.14L164.902 39.3822L164.135 40.0419L164.804 40.8008L165.554 40.14ZM173.214 48.84L173.967 48.1815L173.965 48.1792L173.214 48.84ZM173.114 50.62L172.457 49.8664L173.114 50.62ZM171.334 50.5L170.585 51.1628L170.588 51.1663L171.334 50.5ZM163.634 41.8L164.383 41.1372L163.732 40.4018L162.985 41.0394L163.634 41.8ZM161.314 43.78L160.665 43.0194L160.314 43.3188V43.78H161.314ZM160.054 50C159.788 50 159.772 49.9342 159.816 49.9779C159.86 50.0216 159.794 50.0059 159.794 49.74H157.794C157.794 50.3141 157.938 50.9284 158.402 51.3921C158.866 51.8558 159.48 52 160.054 52V50ZM159.794 49.74V24.38H157.794V49.74H159.794ZM159.794 24.38C159.794 24.1141 159.86 24.0984 159.816 24.1421C159.772 24.1858 159.788 24.12 160.054 24.12V22.12C159.48 22.12 158.866 22.2642 158.402 22.7279C157.938 23.1916 157.794 23.8059 157.794 24.38H159.794ZM160.054 24.12C160.32 24.12 160.336 24.1858 160.292 24.1421C160.248 24.0984 160.314 24.1141 160.314 24.38H162.314C162.314 23.8059 162.17 23.1916 161.706 22.7279C161.242 22.2642 160.628 22.12 160.054 22.12V24.12ZM160.314 24.38V40.46H162.314V24.38H160.314ZM161.966 41.2185L171.906 32.6785L170.602 31.1615L160.662 39.7015L161.966 41.2185ZM171.911 32.6736C172.109 32.5016 172.161 32.5421 172.096 32.5377C172.031 32.5333 172.088 32.5002 172.26 32.6974L173.768 31.3826C173.393 30.9531 172.883 30.5867 172.232 30.5423C171.581 30.4979 171.026 30.7918 170.597 31.1664L171.911 32.6736ZM172.268 32.7063C172.444 32.9032 172.402 32.9544 172.406 32.8877C172.411 32.8242 172.442 32.8864 172.236 33.0674L173.553 34.5726C173.986 34.1936 174.358 33.6791 174.402 33.0223C174.446 32.3623 174.144 31.8035 173.76 31.3737L172.268 32.7063ZM172.242 33.0622L164.902 39.3822L166.207 40.8978L173.547 34.5778L172.242 33.0622ZM164.804 40.8008L172.464 49.5008L173.965 48.1792L166.305 39.4792L164.804 40.8008ZM172.461 49.4985C172.644 49.7068 172.607 49.768 172.611 49.7089C172.614 49.644 172.65 49.6981 172.457 49.8664L173.771 51.3736C174.205 50.9952 174.571 50.4793 174.607 49.8211C174.644 49.1687 174.344 48.6132 173.967 48.1815L172.461 49.4985ZM172.457 49.8664C172.262 50.036 172.208 49.9983 172.266 50.0023C172.322 50.006 172.258 50.0333 172.08 49.8337L170.588 51.1663C170.97 51.5934 171.483 51.954 172.132 51.9977C172.783 52.0417 173.339 51.7506 173.771 51.3736L172.457 49.8664ZM172.083 49.8372L164.383 41.1372L162.885 42.4628L170.585 51.1628L172.083 49.8372ZM162.985 41.0394L160.665 43.0194L161.963 44.5406L164.283 42.5606L162.985 41.0394ZM160.314 43.78V49.74H162.314V43.78H160.314ZM160.314 49.74C160.314 50.0059 160.248 50.0216 160.292 49.9779C160.336 49.9342 160.32 50 160.054 50V52C160.628 52 161.242 51.8558 161.706 51.3921C162.17 50.9284 162.314 50.3141 162.314 49.74H160.314ZM179.445 49.48L178.738 50.1871L178.738 50.1871L179.445 49.48ZM179.445 40.06L178.738 39.3529L178.738 39.3529L179.445 40.06ZM193.045 38.54V39.54H194.078L194.045 38.5075L193.045 38.54ZM191.865 35.12L191.201 35.8674L191.208 35.8734L191.865 35.12ZM182.345 34.62L182.717 35.5485L182.725 35.545L182.345 34.62ZM180.925 36.16L181.874 36.4762L181.88 36.4579L181.886 36.4393L180.925 36.16ZM180.425 37.04L181.106 37.7728L181.108 37.7711L180.425 37.04ZM178.585 36.96L177.858 37.6466L177.878 37.6674L177.899 37.687L178.585 36.96ZM178.345 36L177.359 35.8356L177.359 35.8356L178.345 36ZM180.565 32.68L180.073 31.8094L180.073 31.8094L180.565 32.68ZM193.765 33.44L193.054 34.1432L193.062 34.151L193.765 33.44ZM193.045 48.1H194.045V44.8619L192.219 47.5361L193.045 48.1ZM189.585 48.1L189.327 47.134L189.323 47.1349L189.585 48.1ZM191.905 46.84L191.214 46.1173L191.206 46.125L191.905 46.84ZM193.045 44.46L194.035 44.6051L194.045 44.5329V44.46H193.045ZM193.045 41.06H194.045V40.06H193.045V41.06ZM181.225 41.84L180.518 41.1329L180.518 41.1329L181.225 41.84ZM184.145 50C182.164 50 180.905 49.5251 180.152 48.7729L178.738 50.1871C180.013 51.4616 181.886 52 184.145 52V50ZM180.152 48.7729C179.4 48.0207 178.925 46.7611 178.925 44.78H176.925C176.925 47.0389 177.464 48.9126 178.738 50.1871L180.152 48.7729ZM178.925 44.78C178.925 42.7834 179.401 41.5183 180.152 40.7671L178.738 39.3529C177.463 40.6284 176.925 42.5099 176.925 44.78H178.925ZM180.152 40.7671C180.905 40.0149 182.164 39.54 184.145 39.54V37.54C181.886 37.54 180.013 38.0784 178.738 39.3529L180.152 40.7671ZM184.145 39.54H193.045V37.54H184.145V39.54ZM194.045 38.5075C193.988 36.771 193.571 35.2812 192.523 34.3666L191.208 35.8734C191.626 36.2388 191.996 37.029 192.046 38.5725L194.045 38.5075ZM192.53 34.3726C191.526 33.4804 189.97 33.16 188.145 33.16V35.16C189.841 35.16 190.765 35.4796 191.201 35.8674L192.53 34.3726ZM188.145 33.16H185.825V35.16H188.145V33.16ZM185.825 33.16C184.222 33.16 182.899 33.3113 181.965 33.695L182.725 35.545C183.284 35.3153 184.282 35.16 185.825 35.16V33.16ZM181.974 33.6915C180.966 34.0946 180.268 34.8403 179.965 35.8807L181.886 36.4393C182.01 36.013 182.258 35.7321 182.717 35.5485L181.974 33.6915ZM179.977 35.8438C179.87 36.1635 179.772 36.2815 179.743 36.3089L181.108 37.7711C181.478 37.4251 181.714 36.9565 181.874 36.4762L179.977 35.8438ZM179.745 36.3072C179.781 36.2736 179.804 36.2708 179.781 36.2778C179.754 36.2859 179.688 36.3 179.565 36.3V38.3C180.077 38.3 180.658 38.1883 181.106 37.7728L179.745 36.3072ZM179.565 36.3C179.34 36.3 179.283 36.243 179.272 36.233L177.899 37.687C178.368 38.1303 178.964 38.3 179.565 38.3V36.3ZM179.312 36.2734C179.312 36.2733 179.316 36.2773 179.32 36.2847C179.322 36.2881 179.323 36.2912 179.324 36.2938C179.325 36.2964 179.326 36.2977 179.325 36.2975C179.325 36.2974 179.316 36.2593 179.332 36.1644L177.359 35.8356C177.254 36.4657 177.367 37.1269 177.858 37.6466L179.312 36.2734ZM179.332 36.1644C179.541 34.9105 180.121 34.0801 181.057 33.5506L180.073 31.8094C178.557 32.6666 177.657 34.0494 177.359 35.8356L179.332 36.1644ZM181.057 33.5506C182.068 32.9792 183.622 32.64 185.825 32.64V30.64C183.468 30.64 181.516 30.9942 180.073 31.8094L181.057 33.5506ZM185.825 32.64H188.145V30.64H185.825V32.64ZM188.145 32.64C190.574 32.64 192.133 33.2119 193.054 34.1431L194.476 32.7369C193.024 31.2681 190.836 30.64 188.145 30.64V32.64ZM193.062 34.151C193.993 35.072 194.565 36.6311 194.565 39.06H196.565C196.565 36.3689 195.937 34.1814 194.468 32.729L193.062 34.151ZM194.565 39.06V49.74H196.565V39.06H194.565ZM194.565 49.74C194.565 50.0059 194.5 50.0216 194.543 49.9779C194.587 49.9342 194.571 50 194.305 50V52C194.879 52 195.494 51.8558 195.957 51.3921C196.421 50.9284 196.565 50.3141 196.565 49.74H194.565ZM194.305 50C194.039 50 194.024 49.9342 194.067 49.9779C194.111 50.0216 194.045 50.0059 194.045 49.74H192.045C192.045 50.3141 192.19 50.9284 192.653 51.3921C193.117 51.8558 193.731 52 194.305 52V50ZM194.045 49.74V48.1H192.045V49.74H194.045ZM192.219 47.5361C191.145 49.1097 189.296 50 186.385 50V52C189.714 52 192.306 50.957 193.871 48.6639L192.219 47.5361ZM186.385 50H184.145V52H186.385V50ZM184.145 49.48H186.385V47.48H184.145V49.48ZM186.385 49.48C187.653 49.48 188.811 49.3464 189.847 49.0651L189.323 47.1349C188.493 47.3603 187.517 47.48 186.385 47.48V49.48ZM189.844 49.066C190.928 48.7758 191.862 48.2806 192.604 47.555L191.206 46.125C190.748 46.5727 190.136 46.9176 189.327 47.134L189.844 49.066ZM192.597 47.5626C193.4 46.7942 193.862 45.7819 194.035 44.6051L192.056 44.3149C191.935 45.1381 191.637 45.7125 191.214 46.1174L192.597 47.5626ZM194.045 44.46V41.06H192.045V44.46H194.045ZM193.045 40.06H184.145V42.06H193.045V40.06ZM184.145 40.06C182.673 40.06 181.338 40.3127 180.518 41.1329L181.932 42.5471C182.152 42.3273 182.764 42.06 184.145 42.06V40.06ZM180.518 41.1329C179.697 41.9542 179.445 43.2976 179.445 44.78H181.445C181.445 43.3824 181.714 42.7658 181.932 42.5471L180.518 41.1329ZM179.445 44.78C179.445 46.2522 179.698 47.5869 180.518 48.4071L181.932 46.9929C181.713 46.7731 181.445 46.1611 181.445 44.78H179.445ZM180.518 48.4071C181.338 49.2273 182.673 49.48 184.145 49.48V47.48C182.764 47.48 182.152 47.2127 181.932 46.9929L180.518 48.4071ZM205.455 35.46H204.455V39.1154L206.315 35.969L205.455 35.46ZM208.475 32.62L208.929 33.5107L208.929 33.5107L208.475 32.62ZM207.535 35.66L206.919 34.872L206.915 34.8751L207.535 35.66ZM205.455 39.84L204.457 39.773L204.455 39.8065V39.84H205.455ZM204.195 50C203.929 50 203.913 49.9342 203.957 49.9779C204 50.0216 203.935 50.0059 203.935 49.74H201.935C201.935 50.3141 202.079 50.9284 202.543 51.3921C203.006 51.8558 203.621 52 204.195 52V50ZM203.935 49.74V32.9H201.935V49.74H203.935ZM203.935 32.9C203.935 32.6341 204 32.6184 203.957 32.6621C203.913 32.7058 203.929 32.64 204.195 32.64V30.64C203.621 30.64 203.006 30.7842 202.543 31.2479C202.079 31.7116 201.935 32.3259 201.935 32.9H203.935ZM204.195 32.64C204.461 32.64 204.476 32.7058 204.433 32.6621C204.389 32.6184 204.455 32.6341 204.455 32.9H206.455C206.455 32.3259 206.31 31.7116 205.847 31.2479C205.383 30.7842 204.769 30.64 204.195 30.64V32.64ZM204.455 32.9V35.46H206.455V32.9H204.455ZM206.315 35.969C206.953 34.8917 207.819 34.0776 208.929 33.5107L208.02 31.7293C206.571 32.469 205.424 33.5483 204.594 34.951L206.315 35.969ZM208.929 33.5107C210.043 32.942 211.382 32.64 212.975 32.64V30.64C211.128 30.64 209.466 30.9913 208.02 31.7293L208.929 33.5107ZM212.975 32.64C213.241 32.64 213.256 32.7058 213.213 32.6621C213.169 32.6184 213.235 32.6341 213.235 32.9H215.235C215.235 32.3259 215.09 31.7116 214.627 31.2479C214.163 30.7842 213.549 30.64 212.975 30.64V32.64ZM213.235 32.9C213.235 33.1659 213.169 33.1816 213.213 33.1379C213.256 33.0942 213.241 33.16 212.975 33.16V35.16C213.549 35.16 214.163 35.0158 214.627 34.5521C215.09 34.0884 215.235 33.4741 215.235 32.9H213.235ZM212.975 33.16C210.501 33.16 208.438 33.6853 206.919 34.872L208.15 36.448C209.191 35.6347 210.755 35.16 212.975 35.16V33.16ZM206.915 34.8751C205.401 36.0705 204.594 37.7388 204.457 39.773L206.452 39.907C206.556 38.3679 207.135 37.2495 208.154 36.4449L206.915 34.8751ZM204.455 39.84V49.74H206.455V39.84H204.455ZM204.455 49.74C204.455 50.0059 204.389 50.0216 204.433 49.9779C204.476 49.9342 204.461 50 204.195 50V52C204.769 52 205.383 51.8558 205.847 51.3921C206.31 50.9284 206.455 50.3141 206.455 49.74H204.455ZM220.057 49.62L219.345 50.322L219.35 50.3271L219.355 50.3322L220.057 49.62ZM221.857 47.82L222.564 47.1129L222.564 47.1129L221.857 47.82ZM225.637 49.74H224.637V49.7559L224.637 49.7717L225.637 49.74ZM224.357 50C222.562 50 221.432 49.5716 220.759 48.9078L219.355 50.3322C220.548 51.5084 222.285 52 224.357 52V50ZM220.769 48.918C220.104 48.2435 219.677 47.1189 219.677 45.34H217.677C217.677 47.4011 218.17 49.1299 219.345 50.322L220.769 48.918ZM219.677 45.34V24.38H217.677V45.34H219.677ZM219.677 24.38C219.677 24.1141 219.743 24.0984 219.699 24.1421C219.655 24.1858 219.671 24.12 219.937 24.12V22.12C219.363 22.12 218.748 22.2642 218.285 22.7279C217.821 23.1916 217.677 23.8059 217.677 24.38H219.677ZM219.937 24.12C220.203 24.12 220.218 24.1858 220.175 24.1421C220.131 24.0984 220.197 24.1141 220.197 24.38H222.197C222.197 23.8059 222.053 23.1916 221.589 22.7279C221.125 22.2642 220.511 22.12 219.937 22.12V24.12ZM220.197 24.38V45.34H222.197V24.38H220.197ZM220.197 45.34C220.197 46.5972 220.409 47.7863 221.15 48.5271L222.564 47.1129C222.425 46.9737 222.197 46.5095 222.197 45.34H220.197ZM221.15 48.5271C221.891 49.2679 223.08 49.48 224.337 49.48V47.48C223.167 47.48 222.703 47.2521 222.564 47.1129L221.15 48.5271ZM224.337 49.48C224.624 49.48 224.654 49.5498 224.616 49.5131C224.572 49.4707 224.637 49.4822 224.637 49.74H226.637C226.637 49.1578 226.485 48.5393 226.008 48.0769C225.537 47.6202 224.917 47.48 224.337 47.48V49.48ZM224.637 49.7717C224.641 49.8978 224.627 49.964 224.619 49.9887C224.613 50.0075 224.614 49.993 224.635 49.9723C224.681 49.9271 224.657 50 224.357 50V52C224.937 52 225.566 51.8629 226.038 51.3977C226.52 50.9234 226.655 50.2915 226.636 49.7083L224.637 49.7717ZM232.079 42.32V41.32H231.079V42.32H232.079ZM233.139 47.42L232.432 48.1271L232.439 48.1337L233.139 47.42ZM243.719 47.92L243.266 47.0288L243.259 47.0322L243.719 47.92ZM245.059 45.98L244.086 45.7528L244.079 45.7806L244.074 45.8087L245.059 45.98ZM245.499 45.08L244.792 44.3729L244.792 44.3729L245.499 45.08ZM247.339 45.12L246.611 45.8054L246.632 45.8274L246.654 45.8482L247.339 45.12ZM247.579 46.08L246.591 45.9256L246.589 45.9393L246.587 45.953L247.579 46.08ZM245.439 49.8L245.994 50.6321L245.996 50.6306L245.439 49.8ZM231.359 49.2L230.652 49.9071L230.652 49.9071L231.359 49.2ZM231.359 33.4L232.063 34.1111L232.066 34.1071L231.359 33.4ZM236.979 31.64L236.969 32.64H236.979V31.64ZM245.879 33.44L245.168 34.1432L245.176 34.151L245.879 33.44ZM236.979 34.16L236.965 35.1599L236.972 35.16H236.979V34.16ZM233.139 35.18L232.439 34.4663L232.432 34.4729L233.139 35.18ZM232.079 39.8H231.079V40.8H232.079V39.8ZM245.159 39.8V40.8H246.159V39.8H245.159ZM244.099 35.22L243.392 35.9271L243.392 35.9271L244.099 35.22ZM231.079 42.32V43.62H233.079V42.32H231.079ZM231.079 43.62C231.079 45.5128 231.433 47.128 232.432 48.1271L233.846 46.7129C233.432 46.2987 233.079 45.3805 233.079 43.62H231.079ZM232.439 48.1337C233.45 49.126 235.073 49.48 236.979 49.48V47.48C235.206 47.48 234.269 47.1274 233.84 46.7063L232.439 48.1337ZM236.979 49.48H240.259V47.48H236.979V49.48ZM240.259 49.48C241.881 49.48 243.237 49.2965 244.18 48.8078L243.259 47.0322C242.762 47.2902 241.811 47.48 240.259 47.48V49.48ZM244.173 48.8112C245.228 48.2743 245.839 47.3338 246.045 46.1513L244.074 45.8087C243.96 46.4662 243.678 46.819 243.266 47.0288L244.173 48.8112ZM246.033 46.2072C246.102 45.9114 246.185 45.8084 246.206 45.7871L244.792 44.3729C244.414 44.7516 244.203 45.2486 244.086 45.7528L246.033 46.2072ZM246.206 45.7871C246.184 45.8093 246.17 45.8104 246.191 45.8037C246.216 45.7953 246.28 45.78 246.399 45.78V43.78C245.845 43.78 245.246 43.9192 244.792 44.3729L246.206 45.7871ZM246.399 45.78C246.517 45.78 246.579 45.7964 246.604 45.8054C246.624 45.8125 246.62 45.8143 246.611 45.8054L248.068 44.4346C247.609 43.9475 246.994 43.78 246.399 43.78V45.78ZM246.654 45.8482C246.64 45.8351 246.626 45.8179 246.615 45.7985C246.604 45.7794 246.6 45.7658 246.599 45.7625C246.598 45.7593 246.61 45.8055 246.591 45.9256L248.567 46.2344C248.664 45.6189 248.578 44.9123 248.025 44.3918L246.654 45.8482ZM246.587 45.953C246.405 47.3811 245.819 48.3418 244.883 48.9694L245.996 50.6306C247.487 49.6316 248.327 48.1123 248.571 46.207L246.587 45.953ZM244.885 48.9679C243.917 49.6128 242.418 50 240.259 50V52C242.608 52 244.561 51.5872 245.994 50.6321L244.885 48.9679ZM240.259 50H236.979V52H240.259V50ZM236.979 50C234.567 50 233.003 49.4294 232.066 48.4929L230.652 49.9071C232.116 51.3706 234.299 52 236.979 52V50ZM232.066 48.4929C231.128 47.5546 230.559 46.0024 230.559 43.62H228.559C228.559 46.2776 229.191 48.4454 230.652 49.9071L232.066 48.4929ZM230.559 43.62V39.06H228.559V43.62H230.559ZM230.559 39.06C230.559 36.6008 231.133 35.0303 232.063 34.111L230.656 32.689C229.186 34.143 228.559 36.3458 228.559 39.06H230.559ZM232.066 34.1071C232.999 33.1744 234.558 32.6147 236.969 32.6399L236.99 30.6401C234.308 30.612 232.12 31.2256 230.652 32.6929L232.066 34.1071ZM236.979 32.64H240.259V30.64H236.979V32.64ZM240.259 32.64C242.688 32.64 244.247 33.2119 245.168 34.1431L246.59 32.7369C245.138 31.2681 242.95 30.64 240.259 30.64V32.64ZM245.176 34.151C246.108 35.072 246.679 36.6311 246.679 39.06H248.679C248.679 36.3689 248.051 34.1814 246.583 32.729L245.176 34.151ZM246.679 39.06V41.06H248.679V39.06H246.679ZM246.679 41.06C246.679 41.3259 246.614 41.3416 246.657 41.2979C246.701 41.2542 246.685 41.32 246.419 41.32V43.32C246.994 43.32 247.608 43.1758 248.071 42.7121C248.535 42.2484 248.679 41.6341 248.679 41.06H246.679ZM246.419 41.32H232.079V43.32H246.419V41.32ZM236.994 33.1601C235.087 33.1325 233.456 33.4681 232.439 34.4663L233.84 35.8937C234.263 35.4786 235.192 35.1342 236.965 35.1599L236.994 33.1601ZM232.432 34.4729C231.429 35.4758 231.079 37.1238 231.079 39.06H233.079C233.079 37.2362 233.436 36.2975 233.846 35.8871L232.432 34.4729ZM231.079 39.06V39.8H233.079V39.06H231.079ZM232.079 40.8H245.159V38.8H232.079V40.8ZM246.159 39.8V39.06H244.159V39.8H246.159ZM246.159 39.06C246.159 37.1455 245.808 35.5139 244.806 34.5129L243.392 35.9271C243.805 36.3394 244.159 37.2678 244.159 39.06H246.159ZM244.806 34.5129C243.805 33.5118 242.174 33.16 240.259 33.16V35.16C242.052 35.16 242.98 35.5148 243.392 35.9271L244.806 34.5129ZM240.259 33.16H236.979V35.16H240.259V33.16ZM256.449 49.24L255.742 49.9471L255.742 49.9471L256.449 49.24ZM254.689 34.16H255.689V33.16H254.689V34.16ZM254.689 31.64V32.64H255.689V31.64H254.689ZM257.209 31.64H256.209V32.64H257.209V31.64ZM257.209 34.16V33.16H256.209V34.16H257.209ZM258.249 47.46L257.549 48.1739L257.549 48.1739L258.249 47.46ZM262.949 48.8L262.22 49.4839L262.242 49.5075L262.265 49.5295L262.949 48.8ZM261.989 50C259.599 50 258.064 49.4409 257.156 48.5329L255.742 49.9471C257.181 51.3858 259.339 52 261.989 52V50ZM257.156 48.5329C256.247 47.6232 255.689 46.0998 255.689 43.74H253.689C253.689 46.3669 254.305 48.5101 255.742 49.9471L257.156 48.5329ZM255.689 43.74V34.16H253.689V43.74H255.689ZM254.689 33.16H252.449V35.16H254.689V33.16ZM252.449 33.16C252.184 33.16 252.168 33.0942 252.211 33.1379C252.255 33.1816 252.189 33.1659 252.189 32.9H250.189C250.189 33.4741 250.334 34.0884 250.797 34.5521C251.261 35.0158 251.875 35.16 252.449 35.16V33.16ZM252.189 32.9C252.189 32.6341 252.255 32.6184 252.211 32.6621C252.168 32.7058 252.184 32.64 252.449 32.64V30.64C251.875 30.64 251.261 30.7842 250.797 31.2479C250.334 31.7116 250.189 32.3259 250.189 32.9H252.189ZM252.449 32.64H254.689V30.64H252.449V32.64ZM255.689 31.64V27.8H253.689V31.64H255.689ZM255.689 27.8C255.689 27.5341 255.755 27.5184 255.711 27.5621C255.668 27.6058 255.684 27.54 255.949 27.54V25.54C255.375 25.54 254.761 25.6842 254.297 26.1479C253.834 26.6116 253.689 27.2259 253.689 27.8H255.689ZM255.949 27.54C256.215 27.54 256.231 27.6058 256.187 27.5621C256.144 27.5184 256.209 27.5341 256.209 27.8H258.209C258.209 27.2259 258.065 26.6116 257.601 26.1479C257.138 25.6842 256.524 25.54 255.949 25.54V27.54ZM256.209 27.8V31.64H258.209V27.8H256.209ZM257.209 32.64H262.089V30.64H257.209V32.64ZM262.089 32.64C262.355 32.64 262.371 32.7058 262.327 32.6621C262.284 32.6184 262.349 32.6341 262.349 32.9H264.349C264.349 32.3259 264.205 31.7116 263.741 31.2479C263.278 30.7842 262.664 30.64 262.089 30.64V32.64ZM262.349 32.9C262.349 33.1659 262.284 33.1816 262.327 33.1379C262.371 33.0942 262.355 33.16 262.089 33.16V35.16C262.664 35.16 263.278 35.0158 263.741 34.5521C264.205 34.0884 264.349 33.4741 264.349 32.9H262.349ZM262.089 33.16H257.209V35.16H262.089V33.16ZM256.209 34.16V43.74H258.209V34.16H256.209ZM256.209 43.74C256.209 45.6015 256.555 47.1985 257.549 48.1739L258.95 46.7461C258.557 46.3615 258.209 45.4785 258.209 43.74H256.209ZM257.549 48.1739C258.536 49.1414 260.128 49.48 261.989 49.48V47.48C260.25 47.48 259.35 47.1386 258.95 46.7461L257.549 48.1739ZM261.989 49.48C262.133 49.48 262.211 49.4979 262.243 49.5087C262.27 49.5176 262.25 49.5159 262.22 49.4839L263.679 48.1161C263.212 47.6182 262.567 47.48 261.989 47.48V49.48ZM262.265 49.5295C262.237 49.5033 262.235 49.4851 262.243 49.5073C262.252 49.5351 262.269 49.6063 262.269 49.74H264.269C264.269 49.165 264.126 48.5322 263.633 48.0705L262.265 49.5295ZM262.269 49.74C262.269 50.0018 262.204 50.0154 262.248 49.9723C262.289 49.9321 262.266 50 261.989 50V52C262.566 52 263.183 51.8579 263.651 51.3977C264.121 50.9346 264.269 50.3182 264.269 49.74H262.269ZM271.666 34.38H270.666V37.4712L272.476 34.9657L271.666 34.38ZM285.066 33.44L284.355 34.1432L284.362 34.151L285.066 33.44ZM283.266 35.22L282.558 35.9271L282.565 35.9337L283.266 35.22ZM273.686 35L274.112 35.9044L274.112 35.9044L273.686 35ZM271.666 37.62L270.675 37.4864L270.666 37.5529V37.62H271.666ZM270.406 50C270.14 50 270.124 49.9342 270.168 49.9779C270.211 50.0216 270.146 50.0059 270.146 49.74H268.146C268.146 50.3141 268.29 50.9284 268.754 51.3921C269.217 51.8558 269.831 52 270.406 52V50ZM270.146 49.74V24.38H268.146V49.74H270.146ZM270.146 24.38C270.146 24.1141 270.211 24.0984 270.168 24.1421C270.124 24.1858 270.14 24.12 270.406 24.12V22.12C269.831 22.12 269.217 22.2642 268.754 22.7279C268.29 23.1916 268.146 23.8059 268.146 24.38H270.146ZM270.406 24.12C270.671 24.12 270.687 24.1858 270.644 24.1421C270.6 24.0984 270.666 24.1141 270.666 24.38H272.666C272.666 23.8059 272.521 23.1916 272.058 22.7279C271.594 22.2642 270.98 22.12 270.406 22.12V24.12ZM270.666 24.38V34.38H272.666V24.38H270.666ZM272.476 34.9657C273.542 33.4909 275.394 32.64 278.326 32.64V30.64C275.017 30.64 272.429 31.6158 270.855 33.7943L272.476 34.9657ZM278.326 32.64H279.446V30.64H278.326V32.64ZM279.446 32.64C281.875 32.64 283.434 33.2119 284.355 34.1431L285.777 32.7369C284.324 31.2681 282.137 30.64 279.446 30.64V32.64ZM284.362 34.151C285.294 35.072 285.866 36.6311 285.866 39.06H287.866C287.866 36.3689 287.237 34.1814 285.769 32.729L284.362 34.151ZM285.866 39.06V49.74H287.866V39.06H285.866ZM285.866 49.74C285.866 50.0059 285.8 50.0216 285.844 49.9779C285.887 49.9342 285.871 50 285.606 50V52C286.18 52 286.794 51.8558 287.258 51.3921C287.721 50.9284 287.866 50.3141 287.866 49.74H285.866ZM285.606 50C285.34 50 285.324 49.9342 285.368 49.9779C285.411 50.0216 285.346 50.0059 285.346 49.74H283.346C283.346 50.3141 283.49 50.9284 283.954 51.3921C284.417 51.8558 285.031 52 285.606 52V50ZM285.346 49.74V39.06H283.346V49.74H285.346ZM285.346 39.06C285.346 37.142 284.986 35.5072 283.966 34.5063L282.565 35.9337C282.985 36.3461 283.346 37.2713 283.346 39.06H285.346ZM283.973 34.5129C282.973 33.5128 281.349 33.16 279.446 33.16V35.16C281.222 35.16 282.145 35.5139 282.559 35.9271L283.973 34.5129ZM279.446 33.16H278.326V35.16H279.446V33.16ZM278.326 33.16C276.333 33.16 274.625 33.4508 273.259 34.0956L274.112 35.9044C275.119 35.4292 276.505 35.16 278.326 35.16V33.16ZM273.259 34.0956C271.801 34.7838 270.885 35.9272 270.675 37.4864L272.657 37.7536C272.766 36.9394 273.197 36.3362 274.112 35.9044L273.259 34.0956ZM270.666 37.62V49.74H272.666V37.62H270.666ZM270.666 49.74C270.666 50.0059 270.6 50.0216 270.644 49.9779C270.687 49.9342 270.671 50 270.406 50V52C270.98 52 271.594 51.8558 272.058 51.3921C272.521 50.9284 272.666 50.3141 272.666 49.74H270.666ZM134.56 72.6L135.396 72.0508L135.395 72.05L134.56 72.6ZM144.34 87.48L144.481 88.4699L146.041 88.2472L145.176 86.9308L144.34 87.48ZM143.78 87.56L142.944 87.0112L141.728 88.8632L143.921 88.5499L143.78 87.56ZM153.6 72.6L154.436 73.1488L154.44 73.1422L154.445 73.1355L153.6 72.6ZM153.68 75.56L154.004 74.6138L152.68 74.161V75.56H153.68ZM154.44 75.82L155.273 76.373L155.99 75.2933L154.764 74.8738L154.44 75.82ZM145.48 89.32L144.647 88.767L144.645 88.77L145.48 89.32ZM142.64 89.32L143.475 88.77L143.473 88.767L142.64 89.32ZM133.68 75.82L133.996 74.8713L131.24 73.9527L132.847 76.373L133.68 75.82ZM134.4 76.06H135.4V75.3392L134.716 75.1113L134.4 76.06ZM133.14 97C132.874 97 132.858 96.9342 132.902 96.9779C132.946 97.0216 132.88 97.0059 132.88 96.74H130.88C130.88 97.3141 131.024 97.9284 131.488 98.3921C131.952 98.8558 132.566 99 133.14 99V97ZM132.88 96.74V73.04H130.88V96.74H132.88ZM132.88 73.04C132.88 72.7741 132.946 72.7584 132.902 72.8021C132.858 72.8458 132.874 72.78 133.14 72.78V70.78C132.566 70.78 131.952 70.9242 131.488 71.3879C131.024 71.8516 130.88 72.4659 130.88 73.04H132.88ZM133.14 72.78C133.347 72.78 133.525 72.846 133.725 73.15L135.395 72.05C134.875 71.2607 134.106 70.78 133.14 70.78V72.78ZM133.724 73.1492L143.504 88.0292L145.176 86.9308L135.396 72.0508L133.724 73.1492ZM144.199 86.4901L143.639 86.5701L143.921 88.5499L144.481 88.4699L144.199 86.4901ZM144.616 88.1088L154.436 73.1488L152.764 72.0512L142.944 87.0112L144.616 88.1088ZM154.445 73.1355C154.601 72.8884 154.783 72.78 155.12 72.78V70.78C154.123 70.78 153.292 71.2182 152.755 72.0645L154.445 73.1355ZM155.12 72.78C155.205 72.78 155.235 72.7926 155.23 72.7908C155.219 72.7865 155.193 72.7717 155.171 72.7458C155.151 72.7231 155.158 72.7192 155.171 72.7635C155.184 72.8106 155.2 72.8982 155.2 73.04H157.2C157.2 72.5003 157.088 71.909 156.689 71.4442C156.266 70.9499 155.678 70.78 155.12 70.78V72.78ZM155.2 73.04V96.74H157.2V73.04H155.2ZM155.2 96.74C155.2 97.0059 155.134 97.0216 155.178 96.9779C155.222 96.9342 155.206 97 154.94 97V99C155.514 99 156.128 98.8558 156.592 98.3921C157.056 97.9284 157.2 97.3141 157.2 96.74H155.2ZM154.94 97C154.674 97 154.658 96.9342 154.702 96.9779C154.746 97.0216 154.68 97.0059 154.68 96.74H152.68C152.68 97.3141 152.824 97.9284 153.288 98.3921C153.752 98.8558 154.366 99 154.94 99V97ZM154.68 96.74V75.56H152.68V96.74H154.68ZM153.356 76.5062L154.116 76.7662L154.764 74.8738L154.004 74.6138L153.356 76.5062ZM153.607 75.267L144.647 88.767L146.313 89.873L155.273 76.373L153.607 75.267ZM144.645 88.77C144.469 89.0364 144.276 89.14 143.96 89.14V91.14C144.95 91.14 145.771 90.6969 146.315 89.87L144.645 88.77ZM143.96 89.14C143.864 89.14 143.704 89.1182 143.475 88.77L141.805 89.87C142.296 90.6152 143.016 91.14 143.96 91.14V89.14ZM143.473 88.767L134.513 75.267L132.847 76.373L141.807 89.873L143.473 88.767ZM133.364 76.7687L134.084 77.0087L134.716 75.1113L133.996 74.8713L133.364 76.7687ZM133.4 76.06V96.74H135.4V76.06H133.4ZM133.4 96.74C133.4 97.0059 133.334 97.0216 133.378 96.9779C133.422 96.9342 133.406 97 133.14 97V99C133.714 99 134.328 98.8558 134.792 98.3921C135.256 97.9284 135.4 97.3141 135.4 96.74H133.4ZM165.07 96.2L164.363 96.9071L164.363 96.9071L165.07 96.2ZM165.07 80.42L165.773 81.1311L165.777 81.1271L165.07 80.42ZM170.69 78.64L170.685 79.64H170.69V78.64ZM179.59 80.44L178.879 81.1432L178.887 81.151L179.59 80.44ZM179.59 96.2L178.883 95.4929L178.879 95.4969L179.59 96.2ZM166.85 94.42L166.143 95.1271L166.15 95.1337L166.85 94.42ZM177.81 94.42L178.517 95.1271L178.524 95.1205L177.81 94.42ZM177.81 82.22L177.103 82.9271L177.103 82.9271L177.81 82.22ZM170.69 81.16L170.679 82.16H170.69V81.16ZM167.77 81.6L168.154 82.5236L168.162 82.52L167.77 81.6ZM166.25 83.12L167.168 83.5181L167.17 83.5119L166.25 83.12ZM170.69 97C168.278 97 166.714 96.4294 165.777 95.4929L164.363 96.9071C165.827 98.3706 168.01 99 170.69 99V97ZM165.777 95.4929C164.839 94.5546 164.27 93.0024 164.27 90.62H162.27C162.27 93.2776 162.901 95.4454 164.363 96.9071L165.777 95.4929ZM164.27 90.62V86.06H162.27V90.62H164.27ZM164.27 86.06C164.27 83.6159 164.843 82.0511 165.773 81.131L164.367 79.709C162.898 81.1622 162.27 83.3574 162.27 86.06H164.27ZM165.777 81.1271C166.712 80.1925 168.273 79.6274 170.685 79.64L170.696 77.64C168.014 77.626 165.829 78.2475 164.363 79.7129L165.777 81.1271ZM170.69 79.64H173.97V77.64H170.69V79.64ZM173.97 79.64C176.399 79.64 177.958 80.2119 178.879 81.1431L180.301 79.7369C178.849 78.2681 176.661 77.64 173.97 77.64V79.64ZM178.887 81.151C179.818 82.072 180.39 83.6311 180.39 86.06H182.39C182.39 83.3689 181.762 81.1814 180.293 79.729L178.887 81.151ZM180.39 86.06V90.58H182.39V86.06H180.39ZM180.39 90.58C180.39 92.9926 179.82 94.5563 178.883 95.4929L180.297 96.9071C181.761 95.4437 182.39 93.2607 182.39 90.58H180.39ZM178.879 95.4969C177.958 96.4281 176.399 97 173.97 97V99C176.661 99 178.849 98.3719 180.301 96.9031L178.879 95.4969ZM173.97 97H170.69V99H173.97V97ZM164.79 90.62C164.79 92.5128 165.144 94.128 166.143 95.1271L167.557 93.7129C167.143 93.2987 166.79 92.3805 166.79 90.62H164.79ZM166.15 95.1337C167.161 96.126 168.784 96.48 170.69 96.48V94.48C168.917 94.48 167.98 94.1274 167.551 93.7063L166.15 95.1337ZM170.69 96.48H173.97V94.48H170.69V96.48ZM173.97 96.48C175.885 96.48 177.516 96.1282 178.517 95.1271L177.103 93.7129C176.691 94.1252 175.762 94.48 173.97 94.48V96.48ZM178.524 95.1205C179.516 94.1095 179.87 92.4866 179.87 90.58H177.87C177.87 92.3534 177.518 93.2905 177.097 93.7195L178.524 95.1205ZM179.87 90.58V86.06H177.87V90.58H179.87ZM179.87 86.06C179.87 84.1455 179.518 82.5139 178.517 81.5129L177.103 82.9271C177.515 83.3394 177.87 84.2678 177.87 86.06H179.87ZM178.517 81.5129C177.516 80.5118 175.885 80.16 173.97 80.16V82.16C175.762 82.16 176.691 82.5148 177.103 82.9271L178.517 81.5129ZM173.97 80.16H170.69V82.16H173.97V80.16ZM170.701 80.1601C169.406 80.146 168.277 80.2971 167.378 80.68L168.162 82.52C168.703 82.2896 169.521 82.1473 170.679 82.1599L170.701 80.1601ZM167.387 80.6764C166.433 81.0725 165.737 81.7737 165.33 82.7281L167.17 83.5119C167.377 83.0263 167.695 82.7141 168.154 82.5236L167.387 80.6764ZM165.333 82.7219C164.948 83.6087 164.79 84.7451 164.79 86.06H166.79C166.79 84.8682 166.939 84.0447 167.168 83.5181L165.333 82.7219ZM164.79 86.06V90.62H166.79V86.06H164.79ZM190.16 96.24L189.453 96.9471L189.453 96.9471L190.16 96.24ZM188.4 81.16H189.4V80.16H188.4V81.16ZM188.4 78.64V79.64H189.4V78.64H188.4ZM190.92 78.64H189.92V79.64H190.92V78.64ZM190.92 81.16V80.16H189.92V81.16H190.92ZM191.96 94.46L191.26 95.1739L191.26 95.1739L191.96 94.46ZM196.66 95.8L195.931 96.4839L195.953 96.5075L195.976 96.5295L196.66 95.8ZM195.7 97C193.31 97 191.775 96.4409 190.867 95.5329L189.453 96.9471C190.892 98.3858 193.05 99 195.7 99V97ZM190.867 95.5329C189.958 94.6232 189.4 93.0998 189.4 90.74H187.4C187.4 93.3669 188.016 95.5101 189.453 96.9471L190.867 95.5329ZM189.4 90.74V81.16H187.4V90.74H189.4ZM188.4 80.16H186.16V82.16H188.4V80.16ZM186.16 80.16C185.894 80.16 185.879 80.0942 185.922 80.1379C185.966 80.1816 185.9 80.1659 185.9 79.9H183.9C183.9 80.4741 184.045 81.0884 184.508 81.5521C184.972 82.0158 185.586 82.16 186.16 82.16V80.16ZM185.9 79.9C185.9 79.6341 185.966 79.6184 185.922 79.6621C185.879 79.7058 185.894 79.64 186.16 79.64V77.64C185.586 77.64 184.972 77.7842 184.508 78.2479C184.045 78.7116 183.9 79.3259 183.9 79.9H185.9ZM186.16 79.64H188.4V77.64H186.16V79.64ZM189.4 78.64V74.8H187.4V78.64H189.4ZM189.4 74.8C189.4 74.5341 189.466 74.5184 189.422 74.5621C189.379 74.6058 189.394 74.54 189.66 74.54V72.54C189.086 72.54 188.472 72.6842 188.008 73.1479C187.545 73.6116 187.4 74.2259 187.4 74.8H189.4ZM189.66 74.54C189.926 74.54 189.942 74.6058 189.898 74.5621C189.855 74.5184 189.92 74.5341 189.92 74.8H191.92C191.92 74.2259 191.776 73.6116 191.312 73.1479C190.849 72.6842 190.234 72.54 189.66 72.54V74.54ZM189.92 74.8V78.64H191.92V74.8H189.92ZM190.92 79.64H195.8V77.64H190.92V79.64ZM195.8 79.64C196.066 79.64 196.082 79.7058 196.038 79.6621C195.995 79.6184 196.06 79.6341 196.06 79.9H198.06C198.06 79.3259 197.916 78.7116 197.452 78.2479C196.989 77.7842 196.374 77.64 195.8 77.64V79.64ZM196.06 79.9C196.06 80.1659 195.995 80.1816 196.038 80.1379C196.082 80.0942 196.066 80.16 195.8 80.16V82.16C196.374 82.16 196.989 82.0158 197.452 81.5521C197.916 81.0884 198.06 80.4741 198.06 79.9H196.06ZM195.8 80.16H190.92V82.16H195.8V80.16ZM189.92 81.16V90.74H191.92V81.16H189.92ZM189.92 90.74C189.92 92.6015 190.266 94.1985 191.26 95.1739L192.661 93.7461C192.268 93.3615 191.92 92.4785 191.92 90.74H189.92ZM191.26 95.1739C192.247 96.1414 193.839 96.48 195.7 96.48V94.48C193.961 94.48 193.061 94.1386 192.661 93.7461L191.26 95.1739ZM195.7 96.48C195.844 96.48 195.922 96.4979 195.954 96.5087C195.981 96.5176 195.961 96.5159 195.931 96.4839L197.39 95.1161C196.923 94.6182 196.278 94.48 195.7 94.48V96.48ZM195.976 96.5295C195.948 96.5033 195.946 96.4851 195.954 96.5073C195.963 96.5351 195.98 96.6063 195.98 96.74H197.98C197.98 96.165 197.837 95.5322 197.344 95.0705L195.976 96.5295ZM195.98 96.74C195.98 97.0018 195.915 97.0154 195.959 96.9723C196 96.9321 195.977 97 195.7 97V99C196.277 99 196.894 98.8579 197.362 98.3977C197.832 97.9346 197.98 97.3182 197.98 96.74H195.98ZM203.637 74.12C203.274 74.12 203.185 74.0293 203.178 74.0224C203.169 74.0132 203.077 73.9157 203.077 73.54H201.077C201.077 74.2176 201.244 74.9102 201.755 75.4276C202.268 75.9474 202.959 76.12 203.637 76.12V74.12ZM203.077 73.54V72.54H201.077V73.54H203.077ZM203.077 72.54C203.077 72.1841 203.166 72.1001 203.169 72.0967C203.175 72.0908 203.267 72 203.637 72V70C202.966 70 202.278 70.1658 201.764 70.6733C201.248 71.1832 201.077 71.8692 201.077 72.54H203.077ZM203.637 72H204.617V70H203.637V72ZM204.617 72C204.784 72 204.889 72.0218 204.949 72.0424C205.004 72.0612 205.021 72.0784 205.025 72.0827C205.027 72.0849 205.117 72.1743 205.117 72.54H207.117C207.117 71.879 206.956 71.1984 206.458 70.6873C205.955 70.1712 205.277 70 204.617 70V72ZM205.117 72.54V73.54H207.117V72.54H205.117ZM205.117 73.54C205.117 73.9251 205.024 74.0282 205.016 74.0365C205.011 74.0425 204.994 74.0594 204.942 74.0777C204.884 74.0979 204.782 74.12 204.617 74.12V76.12C205.284 76.12 205.965 75.9416 206.467 75.4135C206.959 74.8952 207.117 74.2082 207.117 73.54H205.117ZM204.617 74.12H203.637V76.12H204.617V74.12ZM204.117 97C203.851 97 203.835 96.9342 203.879 96.9779C203.922 97.0216 203.857 97.0059 203.857 96.74H201.857C201.857 97.3141 202.001 97.9284 202.464 98.3921C202.928 98.8558 203.542 99 204.117 99V97ZM203.857 96.74V79.9H201.857V96.74H203.857ZM203.857 79.9C203.857 79.6341 203.922 79.6184 203.879 79.6621C203.835 79.7058 203.851 79.64 204.117 79.64V77.64C203.542 77.64 202.928 77.7842 202.464 78.2479C202.001 78.7116 201.857 79.3259 201.857 79.9H203.857ZM204.117 79.64C204.382 79.64 204.398 79.7058 204.354 79.6621C204.311 79.6184 204.377 79.6341 204.377 79.9H206.377C206.377 79.3259 206.232 78.7116 205.769 78.2479C205.305 77.7842 204.691 77.64 204.117 77.64V79.64ZM204.377 79.9V96.74H206.377V79.9H204.377ZM204.377 96.74C204.377 97.0059 204.311 97.0216 204.354 96.9779C204.398 96.9342 204.382 97 204.117 97V99C204.691 99 205.305 98.8558 205.769 98.3921C206.232 97.9284 206.377 97.3141 206.377 96.74H204.377ZM215.65 81.38H214.65V84.4712L216.461 81.9657L215.65 81.38ZM229.05 80.44L228.339 81.1432L228.347 81.151L229.05 80.44ZM227.25 82.22L226.543 82.9271L226.55 82.9337L227.25 82.22ZM217.67 82L218.097 82.9044L218.097 82.9044L217.67 82ZM215.65 84.62L214.659 84.4864L214.65 84.5529V84.62H215.65ZM223.53 75.22L222.916 76.0094L222.923 76.0147L222.93 76.02L223.53 75.22ZM222.37 74.22L221.634 74.8971L221.648 74.9124L221.663 74.9271L222.37 74.22ZM221.57 73.5L221.027 74.3396L221.027 74.3396L221.57 73.5ZM219.57 73.72L218.796 73.0868L218.787 73.0975L218.779 73.1086L219.57 73.72ZM218.99 74.82L219.924 75.176L219.927 75.1689L219.93 75.1617L218.99 74.82ZM218.53 75.5L219.155 76.2809L219.17 76.2686L219.185 76.2557L218.53 75.5ZM217.67 75.58L217.945 74.6185L217.911 74.609L217.878 74.6018L217.67 75.58ZM216.87 75L215.905 75.2631L215.911 75.2833L215.917 75.3032L216.87 75ZM216.91 74.16L217.838 74.5314L217.845 74.5152L217.851 74.4987L216.91 74.16ZM218.37 71.88L217.731 71.1104L217.723 71.1172L218.37 71.88ZM222.71 71.66L222.107 72.4575L222.117 72.4651L222.71 71.66ZM223.93 72.7L223.208 73.3919L223.222 73.4064L223.236 73.4203L223.93 72.7ZM224.75 73.4L224.209 74.2412L224.243 74.2632L224.279 74.2824L224.75 73.4ZM226.39 73.22L225.662 72.5346L225.662 72.5346L226.39 73.22ZM226.97 72.14L226.053 71.7413L226.039 71.7744L226.027 71.8085L226.97 72.14ZM227.43 71.44L226.779 70.6807L226.765 70.6927L226.752 70.7052L227.43 71.44ZM228.27 71.32L228.06 72.2978L228.081 72.3021L228.101 72.3056L228.27 71.32ZM229.07 71.9L228.093 72.1124L228.097 72.1325L228.102 72.1524L229.07 71.9ZM229.07 72.7L228.127 72.3672L228.124 72.376L229.07 72.7ZM227.67 74.96L227.006 74.2125L226.997 74.2201L227.67 74.96ZM214.39 97C214.124 97 214.108 96.9342 214.152 96.9779C214.196 97.0216 214.13 97.0059 214.13 96.74H212.13C212.13 97.3141 212.274 97.9284 212.738 98.3921C213.202 98.8558 213.816 99 214.39 99V97ZM214.13 96.74V79.9H212.13V96.74H214.13ZM214.13 79.9C214.13 79.6341 214.196 79.6184 214.152 79.6621C214.108 79.7058 214.124 79.64 214.39 79.64V77.64C213.816 77.64 213.202 77.7842 212.738 78.2479C212.274 78.7116 212.13 79.3259 212.13 79.9H214.13ZM214.39 79.64C214.656 79.64 214.672 79.7058 214.628 79.6621C214.584 79.6184 214.65 79.6341 214.65 79.9H216.65C216.65 79.3259 216.506 78.7116 216.042 78.2479C215.578 77.7842 214.964 77.64 214.39 77.64V79.64ZM214.65 79.9V81.38H216.65V79.9H214.65ZM216.461 81.9657C217.526 80.4909 219.378 79.64 222.31 79.64V77.64C219.002 77.64 216.414 78.6158 214.839 80.7943L216.461 81.9657ZM222.31 79.64H223.43V77.64H222.31V79.64ZM223.43 79.64C225.859 79.64 227.418 80.2119 228.339 81.1431L229.761 79.7369C228.309 78.2681 226.121 77.64 223.43 77.64V79.64ZM228.347 81.151C229.278 82.072 229.85 83.6311 229.85 86.06H231.85C231.85 83.3689 231.222 81.1814 229.753 79.729L228.347 81.151ZM229.85 86.06V96.74H231.85V86.06H229.85ZM229.85 96.74C229.85 97.0059 229.784 97.0216 229.828 96.9779C229.872 96.9342 229.856 97 229.59 97V99C230.164 99 230.778 98.8558 231.242 98.3921C231.706 97.9284 231.85 97.3141 231.85 96.74H229.85ZM229.59 97C229.324 97 229.308 96.9342 229.352 96.9779C229.396 97.0216 229.33 97.0059 229.33 96.74H227.33C227.33 97.3141 227.474 97.9284 227.938 98.3921C228.402 98.8558 229.016 99 229.59 99V97ZM229.33 96.74V86.06H227.33V96.74H229.33ZM229.33 86.06C229.33 84.142 228.97 82.5072 227.95 81.5063L226.55 82.9337C226.97 83.3461 227.33 84.2713 227.33 86.06H229.33ZM227.957 81.5129C226.957 80.5128 225.334 80.16 223.43 80.16V82.16C225.206 82.16 226.13 82.5139 226.543 82.9271L227.957 81.5129ZM223.43 80.16H222.31V82.16H223.43V80.16ZM222.31 80.16C220.317 80.16 218.61 80.4508 217.243 81.0956L218.097 82.9044C219.104 82.4292 220.489 82.16 222.31 82.16V80.16ZM217.243 81.0956C215.785 81.7838 214.869 82.9272 214.659 84.4864L216.641 84.7536C216.751 83.9394 217.182 83.3362 218.097 82.9044L217.243 81.0956ZM214.65 84.62V96.74H216.65V84.62H214.65ZM214.65 96.74C214.65 97.0059 214.584 97.0216 214.628 96.9779C214.672 96.9342 214.656 97 214.39 97V99C214.964 99 215.578 98.8558 216.042 98.3921C216.506 97.9284 216.65 97.3141 216.65 96.74H214.65ZM225.45 74.76C224.795 74.76 224.387 74.6129 224.13 74.42L222.93 76.02C223.633 76.5471 224.505 76.76 225.45 76.76V74.76ZM224.144 74.4306C223.683 74.0722 223.331 73.7668 223.077 73.5129L221.663 74.9271C221.996 75.2598 222.417 75.6211 222.916 76.0094L224.144 74.4306ZM223.106 73.5429C222.775 73.1833 222.442 72.8734 222.113 72.6604L221.027 74.3396C221.151 74.4199 221.352 74.59 221.634 74.8971L223.106 73.5429ZM222.113 72.6604C221.685 72.383 221.195 72.28 220.71 72.28V74.28C220.918 74.28 221.002 74.3236 221.027 74.3396L222.113 72.6604ZM220.71 72.28C220.008 72.28 219.29 72.4833 218.796 73.0868L220.344 74.3532C220.346 74.3506 220.354 74.3387 220.395 74.3229C220.443 74.3043 220.541 74.28 220.71 74.28V72.28ZM218.779 73.1086C218.475 73.5018 218.237 73.9655 218.05 74.4783L219.93 75.1617C220.063 74.7945 220.212 74.5249 220.361 74.3314L218.779 73.1086ZM218.056 74.464C218 74.6104 217.935 74.6927 217.875 74.7443L219.185 76.2557C219.525 75.9606 219.767 75.5896 219.924 75.176L218.056 74.464ZM217.905 74.7191C217.937 74.6936 217.972 74.6742 218.006 74.6613C218.038 74.6487 218.063 74.6452 218.072 74.6443C218.081 74.6435 218.077 74.645 218.054 74.6423C218.032 74.6395 217.996 74.633 217.945 74.6185L217.395 76.5415C217.913 76.6893 218.591 76.7317 219.155 76.2809L217.905 74.7191ZM217.878 74.6018C217.815 74.5885 217.774 74.5748 217.748 74.5646C217.723 74.5545 217.719 74.5496 217.727 74.5554C217.736 74.5619 217.755 74.5781 217.776 74.6065C217.798 74.6356 217.814 74.6673 217.823 74.6968L215.917 75.3032C216.165 76.0836 216.85 76.4282 217.462 76.5582L217.878 74.6018ZM217.835 74.7369C217.808 74.6402 217.817 74.5838 217.838 74.5314L215.982 73.7886C215.789 74.2695 215.772 74.7731 215.905 75.2631L217.835 74.7369ZM217.851 74.4987C218.17 73.612 218.573 73.0189 219.017 72.6428L217.723 71.1172C216.94 71.7811 216.37 72.708 215.969 73.8213L217.851 74.4987ZM219.009 72.6496C219.433 72.2978 219.971 72.1 220.69 72.1V70.1C219.569 70.1 218.561 70.4222 217.731 71.1104L219.009 72.6496ZM220.69 72.1C221.407 72.1 221.842 72.2573 222.107 72.4574L223.313 70.8626C222.591 70.3161 221.68 70.1 220.69 70.1V72.1ZM222.117 72.4651C222.595 72.8173 222.954 73.1264 223.208 73.3919L224.652 72.0081C224.293 71.6336 223.838 71.2494 223.303 70.8549L222.117 72.4651ZM223.236 73.4203C223.6 73.7704 223.934 74.0639 224.209 74.2412L225.291 72.5588C225.193 72.4961 224.98 72.3229 224.624 71.9797L223.236 73.4203ZM224.279 74.2824C224.641 74.475 225.032 74.56 225.43 74.56V72.56C225.321 72.56 225.259 72.5383 225.221 72.5176L224.279 74.2824ZM225.43 74.56C226.027 74.56 226.654 74.3985 227.118 73.9054L225.662 72.5346C225.674 72.5218 225.68 72.5239 225.656 72.5324C225.627 72.5427 225.558 72.56 225.43 72.56V74.56ZM227.118 73.9054C227.471 73.5306 227.721 73.0188 227.913 72.4715L226.027 71.8085C225.872 72.2479 225.736 72.4561 225.662 72.5346L227.118 73.9054ZM227.887 72.5387C227.986 72.3101 228.07 72.2099 228.108 72.1748L226.752 70.7052C226.443 70.9901 226.22 71.3566 226.053 71.7413L227.887 72.5387ZM228.081 72.1993C228.048 72.2274 228.013 72.248 227.981 72.2616C227.95 72.2749 227.929 72.2789 227.921 72.2799C227.915 72.2809 227.922 72.2791 227.946 72.2806C227.971 72.2821 228.008 72.2866 228.06 72.2978L228.48 70.3422C227.973 70.2336 227.31 70.2255 226.779 70.6807L228.081 72.1993ZM228.101 72.3056C228.169 72.3172 228.211 72.3299 228.233 72.3383C228.256 72.3466 228.252 72.3481 228.233 72.3346C228.213 72.3199 228.181 72.2914 228.15 72.2459C228.12 72.1998 228.102 72.1524 228.093 72.1124L230.047 71.6876C229.852 70.791 229.071 70.4427 228.439 70.3344L228.101 72.3056ZM228.102 72.1524C228.148 72.3265 228.122 72.3803 228.127 72.3672L230.013 73.0328C230.178 72.5664 230.152 72.0868 230.038 71.6476L228.102 72.1524ZM228.124 72.376C227.831 73.2312 227.445 73.8216 227.006 74.2126L228.334 75.7074C229.095 75.0317 229.642 74.1155 230.016 73.024L228.124 72.376ZM226.997 74.2201C226.618 74.5646 226.128 74.76 225.45 74.76V76.76C226.558 76.76 227.548 76.4221 228.343 75.6999L226.997 74.2201ZM239.367 96.2L238.66 96.9071L238.66 96.9071L239.367 96.2ZM239.367 80.42L240.07 81.1311L240.074 81.1271L239.367 80.42ZM244.987 78.64L244.982 79.64H244.987V78.64ZM253.887 80.44L253.176 81.1432L253.184 81.151L253.887 80.44ZM253.887 96.2L253.18 95.4929L253.176 95.4969L253.887 96.2ZM241.147 94.42L240.44 95.1271L240.447 95.1337L241.147 94.42ZM252.107 94.42L252.814 95.1271L252.821 95.1205L252.107 94.42ZM252.107 82.22L251.4 82.9271L251.4 82.9271L252.107 82.22ZM244.987 81.16L244.976 82.16H244.987V81.16ZM242.067 81.6L242.451 82.5236L242.459 82.52L242.067 81.6ZM240.547 83.12L241.465 83.5181L241.467 83.5119L240.547 83.12ZM244.987 97C242.575 97 241.011 96.4294 240.074 95.4929L238.66 96.9071C240.124 98.3706 242.306 99 244.987 99V97ZM240.074 95.4929C239.136 94.5546 238.567 93.0024 238.567 90.62H236.567C236.567 93.2776 237.198 95.4454 238.66 96.9071L240.074 95.4929ZM238.567 90.62V86.06H236.567V90.62H238.567ZM238.567 86.06C238.567 83.6159 239.14 82.0511 240.07 81.131L238.664 79.709C237.194 81.1622 236.567 83.3574 236.567 86.06H238.567ZM240.074 81.1271C241.009 80.1925 242.57 79.6274 244.982 79.64L244.992 77.64C242.311 77.626 240.125 78.2475 238.66 79.7129L240.074 81.1271ZM244.987 79.64H248.267V77.64H244.987V79.64ZM248.267 79.64C250.696 79.64 252.255 80.2119 253.176 81.1431L254.598 79.7369C253.146 78.2681 250.958 77.64 248.267 77.64V79.64ZM253.184 81.151C254.115 82.072 254.687 83.6311 254.687 86.06H256.687C256.687 83.3689 256.059 81.1814 254.59 79.729L253.184 81.151ZM254.687 86.06V90.58H256.687V86.06H254.687ZM254.687 90.58C254.687 92.9926 254.117 94.5563 253.18 95.4929L254.594 96.9071C256.058 95.4437 256.687 93.2607 256.687 90.58H254.687ZM253.176 95.4969C252.255 96.4281 250.696 97 248.267 97V99C250.958 99 253.146 98.3719 254.598 96.9031L253.176 95.4969ZM248.267 97H244.987V99H248.267V97ZM239.087 90.62C239.087 92.5128 239.441 94.128 240.44 95.1271L241.854 93.7129C241.44 93.2987 241.087 92.3805 241.087 90.62H239.087ZM240.447 95.1337C241.458 96.126 243.081 96.48 244.987 96.48V94.48C243.214 94.48 242.277 94.1274 241.848 93.7063L240.447 95.1337ZM244.987 96.48H248.267V94.48H244.987V96.48ZM248.267 96.48C250.182 96.48 251.813 96.1282 252.814 95.1271L251.4 93.7129C250.988 94.1252 250.059 94.48 248.267 94.48V96.48ZM252.821 95.1205C253.813 94.1095 254.167 92.4866 254.167 90.58H252.167C252.167 92.3534 251.815 93.2905 251.394 93.7195L252.821 95.1205ZM254.167 90.58V86.06H252.167V90.58H254.167ZM254.167 86.06C254.167 84.1455 253.815 82.5139 252.814 81.5129L251.4 82.9271C251.812 83.3394 252.167 84.2678 252.167 86.06H254.167ZM252.814 81.5129C251.813 80.5118 250.182 80.16 248.267 80.16V82.16C250.059 82.16 250.988 82.5148 251.4 82.9271L252.814 81.5129ZM248.267 80.16H244.987V82.16H248.267V80.16ZM244.998 80.1601C243.703 80.146 242.574 80.2971 241.675 80.68L242.459 82.52C243 82.2896 243.818 82.1473 244.976 82.1599L244.998 80.1601ZM241.684 80.6764C240.73 81.0725 240.034 81.7737 239.627 82.7281L241.467 83.5119C241.674 83.0263 241.992 82.7141 242.451 82.5236L241.684 80.6764ZM239.63 82.7219C239.245 83.6087 239.087 84.7451 239.087 86.06H241.087C241.087 84.8682 241.236 84.0447 241.465 83.5181L239.63 82.7219ZM239.087 86.06V90.62H241.087V86.06H239.087Z" fill="#07117E" mask="url(#path-7-outside-1_178_91)"/>
</svg>
