<svg width="383" height="120" viewBox="0 0 383 120" fill="none" xmlns="http://www.w3.org/2000/svg">
<circle cx="60" cy="60" r="60" fill="#07117E"/>
<path d="M58.8746 20.2058L55.0516 18L58.8746 15.7941C59.0901 15.6698 59.1638 15.3948 59.0394 15.1793L58.1389 13.6204C58.0146 13.4052 57.7392 13.3312 57.5238 13.4556L53.7008 15.6614V11.25C53.7008 11.0014 53.4991 10.8 53.2505 10.8H51.4493C51.2007 10.8 50.9991 11.0014 50.9991 11.25V15.6617L47.176 13.4558C46.9606 13.3315 46.6853 13.4055 46.5609 13.6206L45.6604 15.1793C45.5361 15.3945 45.6098 15.6698 45.8252 15.7941L49.6482 18L45.8252 20.2058C45.6098 20.3301 45.5361 20.6055 45.6604 20.8206L46.5609 22.3796C46.6853 22.5948 46.9606 22.6685 47.176 22.5444L50.9991 20.3386V24.75C50.9991 24.9986 51.2007 25.2 51.4493 25.2H53.2505C53.4991 25.2 53.7008 24.9986 53.7008 24.75V20.3383L57.5238 22.5441C57.7392 22.6685 58.0146 22.5948 58.1389 22.3793L59.0394 20.8204C59.1638 20.6052 59.0901 20.3301 58.8746 20.2058Z" fill="#FFFEF3"/>
<path d="M95.6995 54.5411L90.6022 51.6L95.6995 48.6589C95.9868 48.4931 96.085 48.1264 95.9193 47.8391L94.7185 45.7605C94.5528 45.4736 94.1857 45.375 93.8984 45.5408L88.801 48.4819V42.6C88.801 42.2685 88.5322 42 88.2007 42H85.7992C85.4677 42 85.1988 42.2685 85.1988 42.6V48.4823L80.1014 45.5411C79.8142 45.3754 79.447 45.474 79.2813 45.7609L78.0805 47.8391C77.9148 48.126 78.013 48.4931 78.3003 48.6589L83.3977 51.6L78.3003 54.5411C78.013 54.7069 77.9148 55.074 78.0805 55.3609L79.2813 57.4395C79.447 57.7264 79.8142 57.8246 80.1014 57.6593L85.1988 54.7181V60.6C85.1988 60.9315 85.4677 61.2 85.7992 61.2H88.2007C88.5322 61.2 88.801 60.9315 88.801 60.6V54.7178L93.8984 57.6589C94.1857 57.8246 94.5528 57.7264 94.7185 57.4391L95.9193 55.3605C96.085 55.0736 95.9868 54.7069 95.6995 54.5411Z" fill="#FFFEF3"/>
<path d="M91.2555 29.1955L83.2909 24.6L91.2555 20.0045C91.7043 19.7455 91.8579 19.1724 91.5989 18.7236L89.7227 15.4758C89.4637 15.0275 88.8901 14.8734 88.4412 15.1324L80.4766 19.7279V10.5375C80.4766 10.0195 80.0565 9.59998 79.5385 9.59998H75.7862C75.2682 9.59998 74.8481 10.0195 74.8481 10.5375V19.7285L66.8834 15.133C66.4346 14.874 65.861 15.0281 65.602 15.4763L63.7258 18.7236C63.4668 19.1719 63.6203 19.7455 64.0692 20.0045L72.0338 24.6L64.0692 29.1955C63.6203 29.4545 63.4668 30.0281 63.7258 30.4763L65.602 33.7242C65.861 34.1724 66.4346 34.326 66.8834 34.0676L74.8481 29.472V38.6625C74.8481 39.1804 75.2682 39.6 75.7862 39.6H79.5385C80.0565 39.6 80.4766 39.1804 80.4766 38.6625V29.4715L88.4412 34.067C88.8901 34.326 89.4637 34.1724 89.7227 33.7236L91.5989 30.4758C91.8579 30.0275 91.7043 29.4545 91.2555 29.1955Z" fill="#FFFEF3"/>
<path d="M73.8908 78.9769C70.2476 74.2853 64.7739 71.6672 59.0524 71.5596C58.206 71.5436 57.8015 72.5918 58.4297 73.1443C65.5735 79.4265 65.1463 90.6216 57.6553 96.4385C53.3403 99.7892 47.5886 100.573 42.5529 98.4989C41.7767 98.1792 41.0117 99.0052 41.3981 99.7535C41.94 100.802 42.5767 101.799 43.3005 102.731C49.8202 111.127 61.9535 112.629 70.407 106.064C78.8497 99.5084 80.4188 87.3836 73.8908 78.9769Z" fill="#FFFEF3"/>
<path d="M41.8553 71.8793C46.6032 74.6536 52.238 74.9651 57.2388 73.0022C57.9785 72.7118 57.975 71.6541 57.243 71.3989C48.9199 68.4983 45.504 58.5997 50.0362 50.8437C52.6469 46.3759 57.3723 43.626 62.4431 43.6216C63.2247 43.621 63.6091 42.6269 63.0208 42.1145C62.1959 41.3964 61.3063 40.7576 60.363 40.2062C51.8663 35.2413 40.8308 38.2954 35.7163 47.0481C30.6083 55.7897 33.3478 66.908 41.8553 71.8793Z" fill="#FFFEF3"/>
<path d="M154.148 29.008C153.913 29.448 153.576 29.8733 153.136 30.284C152.696 30.6653 152.271 30.9293 151.86 31.076C151.449 31.1933 151.185 31.1493 151.068 30.944C150.071 29.0373 148.692 27.4533 146.932 26.192C145.172 24.9307 143.295 24.1973 141.3 23.992C140.068 23.8747 138.983 23.9627 138.044 24.256C137.135 24.52 136.489 24.8427 136.108 25.224C135.756 25.6053 135.492 26.2947 135.316 27.292C135.14 28.26 135.301 29.3307 135.8 30.504C136.299 31.6773 137.091 32.66 138.176 33.452C139.261 34.2147 140.596 34.8747 142.18 35.432C142.268 35.4613 142.84 35.6667 143.896 36.048C144.952 36.4 145.759 36.6933 146.316 36.928C150.1 38.5413 152.227 40.932 152.696 44.1C153.019 46.212 152.505 48.28 151.156 50.304C150.393 51.4773 149.455 52.4893 148.34 53.34C145.553 55.452 142.517 56.2293 139.232 55.672C137.032 55.2907 135.023 54.396 133.204 52.988C131.385 51.5507 129.977 49.8053 128.98 47.752C128.863 47.5173 128.921 47.18 129.156 46.74C129.42 46.3 129.772 45.8893 130.212 45.508C130.652 45.0973 131.063 44.8333 131.444 44.716C131.855 44.5693 132.119 44.6133 132.236 44.848C133.204 46.784 134.539 48.4267 136.24 49.776C137.971 51.1253 139.76 51.9613 141.608 52.284C143.485 52.6067 145.025 52.5627 146.228 52.152C147.46 51.712 148.267 51.1987 148.648 50.612C149.352 49.5267 149.587 48.2067 149.352 46.652C148.941 43.8653 146.976 41.7093 143.456 40.184C142.928 39.9493 142.136 39.6707 141.08 39.348C138.352 38.4093 136.387 37.5 135.184 36.62C133.981 35.74 133.087 34.64 132.5 33.32C131.913 31.9707 131.767 30.4893 132.06 28.876C132.383 27.2627 133.263 25.6933 134.7 24.168C137.311 21.4693 140.361 20.296 143.852 20.648C146.052 20.8827 148.076 21.6747 149.924 23.024C151.801 24.344 153.268 26.0013 154.324 27.996C154.441 28.2013 154.383 28.5387 154.148 29.008ZM159.957 19.768C159.986 19.416 160.177 19.0053 160.529 18.536C160.881 18.0667 161.248 17.7147 161.629 17.48C162.01 17.216 162.318 17.0547 162.553 16.996C163.081 16.8493 163.33 17.0107 163.301 17.48L161.057 41.812L173.641 30.944C174.081 30.5627 174.492 30.328 174.873 30.24C175.254 30.1227 175.489 30.196 175.577 30.46C175.665 30.6947 175.577 31.0467 175.313 31.516C175.078 31.956 174.726 32.3667 174.257 32.748L166.029 39.876L175.093 52.504C175.24 52.7093 175.21 53.032 175.005 53.472C174.8 53.8827 174.477 54.2933 174.037 54.704C173.597 55.1147 173.172 55.3933 172.761 55.54C172.35 55.716 172.072 55.7013 171.925 55.496L162.773 42.736C162.773 42.736 162.758 42.7213 162.729 42.692L160.837 44.364L160.045 52.856C160.016 53.1787 159.825 53.5747 159.473 54.044C159.121 54.5427 158.754 54.9093 158.373 55.144C157.992 55.408 157.684 55.5693 157.449 55.628C156.921 55.7747 156.672 55.6133 156.701 55.144L159.957 19.768ZM197.978 51.008C198.36 50.9493 198.58 51.0667 198.638 51.36C198.697 51.624 198.565 51.9907 198.242 52.46C197.949 52.9293 197.436 53.4573 196.702 54.044C195.969 54.6307 195.192 55.0853 194.37 55.408C192.757 56.0533 191.76 55.76 191.378 54.528C191.202 54.0293 191.129 53.1053 191.158 51.756C189.633 53.604 188.093 54.8067 186.538 55.364C184.984 55.9213 183.532 56.0093 182.182 55.628C177.988 54.4547 176.726 49.6147 178.398 41.108C178.956 38.292 179.938 35.9747 181.346 34.156C183.752 31.0467 186.7 29.7267 190.19 30.196C191.657 30.372 192.801 30.9147 193.622 31.824C194.297 30.9147 195.001 30.372 195.734 30.196C195.969 30.1373 196.145 30.1667 196.262 30.284C196.409 30.372 196.468 30.5333 196.438 30.768C194.737 43.176 194.136 50.1573 194.634 51.712C194.869 52.416 195.25 52.636 195.778 52.372C196.013 52.2547 196.35 52.02 196.79 51.668C197.23 51.2867 197.626 51.0667 197.978 51.008ZM191.378 47.356C191.584 45.0093 191.73 43.5133 191.818 42.868C192.581 37.1187 191.158 34.0093 187.55 33.54C186.67 33.4227 185.908 33.4373 185.262 33.584C184.382 33.76 183.781 34.0387 183.458 34.42C182.725 35.3587 182.124 37.0307 181.654 39.436C181.185 41.8413 180.98 43.968 181.038 45.816C181.214 49.4533 182.505 51.6093 184.91 52.284C186.758 52.812 188.181 52.4747 189.178 51.272C189.912 50.392 190.645 49.0867 191.378 47.356ZM203.682 32.968C203.711 32.6453 203.902 32.2493 204.254 31.78C204.606 31.3107 204.972 30.9587 205.354 30.724C205.735 30.46 206.058 30.2987 206.322 30.24C206.85 30.1227 207.084 30.284 207.026 30.724L206.806 32.66C209.064 30.7533 211.396 29.932 213.802 30.196C214.212 30.2547 214.315 30.5627 214.11 31.12C213.816 31.8827 213.332 32.484 212.658 32.924C211.983 33.364 211.514 33.5693 211.25 33.54C209.754 33.364 208.478 33.672 207.422 34.464C206.923 34.8453 206.571 35.74 206.366 37.148L204.694 52.9C204.664 53.252 204.474 53.648 204.122 54.088C203.77 54.5573 203.403 54.9093 203.022 55.144C202.64 55.408 202.318 55.5693 202.054 55.628C201.526 55.7453 201.291 55.5693 201.35 55.1L202.978 39.7C202.978 39.6413 202.992 39.524 203.022 39.348L203.682 32.968ZM218.48 19.768C218.51 19.416 218.7 19.0053 219.052 18.536C219.404 18.0667 219.771 17.7147 220.152 17.48C220.534 17.216 220.842 17.0547 221.076 16.996C221.604 16.8493 221.854 17.0107 221.824 17.48L218.568 52.856C218.539 53.1787 218.348 53.5747 217.996 54.044C217.644 54.5427 217.278 54.9093 216.896 55.144C216.515 55.408 216.207 55.5693 215.972 55.628C215.444 55.7747 215.195 55.6133 215.224 55.144L218.48 19.768ZM227.394 43.704C227.276 49.1307 229.638 52.0053 234.478 52.328C235.504 52.416 236.428 52.3867 237.25 52.24C238.306 52.064 238.892 51.8587 239.01 51.624C239.244 51.184 239.582 50.7587 240.022 50.348C240.491 49.9373 240.916 49.6733 241.298 49.556C241.679 49.4093 241.943 49.4533 242.09 49.688C242.295 50.0693 242.016 50.7587 241.254 51.756C240.491 52.7533 239.699 53.5307 238.878 54.088C238.086 54.6747 237.308 55.0707 236.546 55.276C234.844 55.7453 233.304 55.8773 231.926 55.672C226.147 55.2907 223.551 51.6387 224.138 44.716C224.314 42.5747 224.636 40.7267 225.106 39.172C225.575 37.588 226.323 36.1067 227.35 34.728C229.696 31.56 232.615 30.0493 236.106 30.196C241.65 30.4013 243.967 34.0827 243.058 41.24C242.794 42.4133 242.207 43.2493 241.298 43.748C240.946 43.9533 240.564 44.0413 240.154 44.012L227.394 43.704ZM227.702 40.404C227.907 40.3453 228.068 40.316 228.186 40.316L239.89 40.58C239.802 36.0333 237.704 33.6867 233.598 33.54C231.603 33.452 230.268 33.8773 229.594 34.816C228.714 35.9893 228.083 37.852 227.702 40.404ZM258.694 50.436C259.075 50.348 259.295 50.4507 259.354 50.744C259.412 51.008 259.295 51.3747 259.002 51.844C258.708 52.284 258.136 52.856 257.286 53.56C256.435 54.2347 255.496 54.792 254.47 55.232C252.446 56.0533 250.935 55.848 249.938 54.616C248.999 53.5307 248.75 51.4627 249.19 48.412L250.334 35.168H246.99C246.55 35.168 246.432 34.8893 246.638 34.332C246.872 33.5987 247.312 32.9973 247.958 32.528C248.632 32.0293 249.131 31.78 249.454 31.78H250.642L251.302 24.256C251.331 23.9333 251.522 23.5373 251.874 23.068C252.226 22.5987 252.592 22.232 252.974 21.968C253.355 21.704 253.663 21.5427 253.898 21.484C254.426 21.3373 254.675 21.4987 254.646 21.968L253.81 31.78C255.1 31.78 256.376 31.78 257.638 31.78C258.078 31.78 258.195 32.0733 257.99 32.66C257.755 33.3933 257.3 33.9947 256.626 34.464C255.98 34.9333 255.496 35.168 255.174 35.168H253.502L252.534 46.168C252.534 46.1973 252.534 46.2267 252.534 46.256C252.123 48.896 252.314 50.656 253.106 51.536C253.839 52.4453 254.734 52.6653 255.79 52.196C256.288 51.9613 256.802 51.624 257.33 51.184C257.887 50.744 258.342 50.4947 258.694 50.436ZM265.871 19.768C265.9 19.416 266.091 19.0053 266.443 18.536C266.795 18.0667 267.162 17.7147 267.543 17.48C267.924 17.216 268.232 17.0547 268.467 16.996C268.995 16.8493 269.244 17.0107 269.215 17.48L267.719 33.98C268.628 32.8947 269.684 32 270.887 31.296C272.119 30.5627 273.351 30.196 274.583 30.196C279.599 30.1373 281.74 33.584 281.007 40.536L279.951 52.856C279.922 53.1787 279.731 53.5747 279.379 54.044C279.027 54.5133 278.66 54.88 278.279 55.144C277.898 55.408 277.59 55.5693 277.355 55.628C276.827 55.7747 276.578 55.6133 276.607 55.144L277.663 42.824C278.338 36.6053 276.519 33.5107 272.207 33.54C271.356 33.54 270.726 33.6573 270.315 33.892C269.288 34.4787 268.335 36.092 267.455 38.732C267.396 38.908 267.308 39.0987 267.191 39.304L265.959 52.856C265.93 53.1787 265.739 53.5747 265.387 54.044C265.035 54.5427 264.668 54.9093 264.287 55.144C263.906 55.408 263.598 55.5693 263.363 55.628C262.835 55.7747 262.586 55.6133 262.615 55.144L265.871 19.768ZM157.228 92.856C157.199 93.208 157.008 93.604 156.656 94.044C156.304 94.5133 155.937 94.88 155.556 95.144C155.175 95.408 154.867 95.5693 154.632 95.628C154.104 95.7747 153.855 95.6133 153.884 95.144L156.216 67.996L145.348 87.136C144.732 88.0453 144.189 88.6613 143.72 88.984C143.28 89.3067 142.957 89.4533 142.752 89.424C142.576 89.3653 142.429 89.1893 142.312 88.896L134.568 69.756L132.148 92.9C132.119 93.252 131.928 93.648 131.576 94.088C131.224 94.5573 130.857 94.9093 130.476 95.144C130.095 95.408 129.787 95.5693 129.552 95.628C129.024 95.7453 128.775 95.5693 128.804 95.1L132.104 63.42C132.133 63.068 132.427 62.6867 132.984 62.276C133.541 61.8653 134.084 61.528 134.612 61.264L135.404 60.868L144.732 84.012L156.876 62.672C157.58 61.4693 158.387 60.8973 159.296 60.956C159.501 60.956 159.721 61.0293 159.956 61.176L157.228 92.856ZM175.195 70.196C180.593 70.6653 182.763 75.08 181.707 83.44C181.267 86.784 180.285 89.468 178.759 91.492C176.413 94.6013 173.494 95.9947 170.003 95.672C164.078 95.144 161.57 91.3307 162.479 84.232C162.743 82.208 163.125 80.4333 163.623 78.908C164.151 77.3827 164.929 75.96 165.955 74.64C168.449 71.3547 171.529 69.8733 175.195 70.196ZM172.643 73.54C170.414 73.3347 168.903 73.76 168.111 74.816C167.671 75.3733 167.231 76.2973 166.791 77.588C166.351 78.8493 166.029 80.3307 165.823 82.032C165.002 88.4267 167.246 91.8587 172.555 92.328C174.579 92.504 175.914 92.1667 176.559 91.316C176.882 90.876 177.219 90.1573 177.571 89.16C177.923 88.1333 178.187 86.96 178.363 85.64C179.361 77.984 177.454 73.9507 172.643 73.54ZM197.463 90.436C197.845 90.348 198.065 90.4507 198.123 90.744C198.182 91.008 198.065 91.3747 197.771 91.844C197.478 92.284 196.906 92.856 196.055 93.56C195.205 94.2347 194.266 94.792 193.239 95.232C191.215 96.0533 189.705 95.848 188.707 94.616C187.769 93.5307 187.519 91.4627 187.959 88.412L189.103 75.168H185.759C185.319 75.168 185.202 74.8893 185.407 74.332C185.642 73.5987 186.082 72.9973 186.727 72.528C187.402 72.0293 187.901 71.78 188.223 71.78H189.411L190.071 64.256C190.101 63.9333 190.291 63.5373 190.643 63.068C190.995 62.5987 191.362 62.232 191.743 61.968C192.125 61.704 192.433 61.5427 192.667 61.484C193.195 61.3373 193.445 61.4987 193.415 61.968L192.579 71.78C193.87 71.78 195.146 71.78 196.407 71.78C196.847 71.78 196.965 72.0733 196.759 72.66C196.525 73.3933 196.07 73.9947 195.395 74.464C194.75 74.9333 194.266 75.168 193.943 75.168H192.271L191.303 86.168C191.303 86.1973 191.303 86.2267 191.303 86.256C190.893 88.896 191.083 90.656 191.875 91.536C192.609 92.4453 193.503 92.6653 194.559 92.196C195.058 91.9613 195.571 91.624 196.099 91.184C196.657 90.744 197.111 90.4947 197.463 90.436ZM204.068 72.968C204.098 72.6453 204.288 72.2493 204.64 71.78C204.992 71.3107 205.359 70.9587 205.74 70.724C206.122 70.46 206.444 70.2987 206.708 70.24C207.236 70.1227 207.471 70.284 207.412 70.724L205.08 92.9C205.051 93.252 204.86 93.648 204.508 94.088C204.156 94.5573 203.79 94.9093 203.408 95.144C203.027 95.408 202.704 95.5693 202.44 95.628C201.912 95.7453 201.678 95.5693 201.736 95.1L204.068 72.968ZM204.288 65.4C204.318 65.0773 204.494 64.6813 204.816 64.212C205.168 63.7427 205.535 63.376 205.916 63.112C206.298 62.848 206.62 62.6867 206.884 62.628C207.412 62.4813 207.662 62.6427 207.632 63.112L207.412 66.192C207.383 66.5147 207.192 66.9107 206.84 67.38C206.518 67.8493 206.166 68.216 205.784 68.48C205.403 68.744 205.08 68.9053 204.816 68.964C204.288 69.1107 204.039 68.9493 204.068 68.48L204.288 65.4ZM214.295 72.968C214.354 72.6453 214.574 72.2493 214.955 71.78C215.366 71.3107 215.762 70.9587 216.143 70.724C216.554 70.46 216.891 70.2987 217.155 70.24C217.713 70.1227 217.933 70.284 217.815 70.724L217.243 73.628C218.153 72.6893 219.223 71.8827 220.455 71.208C221.687 70.5333 222.919 70.196 224.151 70.196C229.167 70.1373 231.015 73.584 229.695 80.536L227.539 92.856C227.481 93.1787 227.261 93.5747 226.879 94.044C226.498 94.5133 226.102 94.88 225.691 95.144C225.281 95.408 224.958 95.5693 224.723 95.628C224.166 95.7747 223.931 95.6133 224.019 95.144L226.131 82.824C227.363 76.6053 225.823 73.5107 221.511 73.54C220.661 73.54 220.015 73.6573 219.575 73.892C218.49 74.4787 217.39 76.092 216.275 78.732C216.275 78.7613 216.275 78.8053 216.275 78.864L213.547 92.9C213.489 93.252 213.254 93.648 212.843 94.088C212.462 94.5573 212.066 94.9093 211.655 95.144C211.274 95.408 210.951 95.5693 210.687 95.628C210.13 95.7453 209.91 95.5693 210.027 95.1L214.295 72.968ZM222.655 63.112C223.389 62.1733 224.166 61.6013 224.987 61.396C225.515 61.2493 225.75 61.4107 225.691 61.88C225.691 61.9093 225.677 61.9973 225.647 62.144C225.618 62.2613 225.603 62.3493 225.603 62.408C225.603 62.4373 225.574 62.5253 225.515 62.672C225.486 62.7893 225.457 62.892 225.427 62.98C225.398 63.0387 225.354 63.1413 225.295 63.288C225.266 63.4053 225.207 63.5227 225.119 63.64C225.061 63.7573 225.002 63.8747 224.943 63.992C224.415 64.8133 223.829 65.444 223.183 65.884C222.567 66.324 222.127 66.6027 221.863 66.72C221.599 66.808 221.291 66.852 220.939 66.852C220.441 66.8227 220.089 66.7493 219.883 66.632L218.211 65.664L216.495 64.784C215.791 65.7227 215.043 66.324 214.251 66.588C213.665 66.7933 213.371 66.6907 213.371 66.28C213.371 66.28 213.386 66.192 213.415 66.016C213.386 65.84 213.371 65.708 213.371 65.62C213.371 65.532 213.386 65.3853 213.415 65.18C213.445 64.9453 213.489 64.7547 213.547 64.608C213.635 64.432 213.738 64.2267 213.855 63.992C213.973 63.728 214.119 63.4933 214.295 63.288C215.058 62.408 215.938 61.7187 216.935 61.22C217.434 60.9853 217.845 60.8973 218.167 60.956C218.519 61.0147 218.71 61.044 218.739 61.044C218.798 61.044 218.827 61.0587 218.827 61.088L221.423 62.408L222.655 63.112ZM245.621 70.196C251.019 70.6653 253.189 75.08 252.133 83.44C251.693 86.784 250.711 89.468 249.185 91.492C246.839 94.6013 243.92 95.9947 240.429 95.672C234.504 95.144 231.996 91.3307 232.905 84.232C233.169 82.208 233.551 80.4333 234.049 78.908C234.577 77.3827 235.355 75.96 236.381 74.64C238.875 71.3547 241.955 69.8733 245.621 70.196ZM243.069 73.54C240.84 73.3347 239.329 73.76 238.537 74.816C238.097 75.3733 237.657 76.2973 237.217 77.588C236.777 78.8493 236.455 80.3307 236.249 82.032C235.428 88.4267 237.672 91.8587 242.981 92.328C245.005 92.504 246.34 92.1667 246.985 91.316C247.308 90.876 247.645 90.1573 247.997 89.16C248.349 88.1333 248.613 86.96 248.789 85.64C249.787 77.984 247.88 73.9507 243.069 73.54ZM267.8 63.464C267.83 63.1413 268.094 62.6427 268.592 61.968C269.091 61.2933 269.692 60.868 270.396 60.692C270.543 60.6627 270.646 60.648 270.704 60.648C270.763 60.648 270.822 60.648 270.88 60.648H288.216C288.656 60.648 288.774 60.9267 288.568 61.484C288.334 62.2173 287.879 62.8187 287.204 63.288C286.559 63.7573 286.075 63.992 285.752 63.992H270.924L269.868 76.312C274.855 76.312 279.856 76.312 284.872 76.312C285.312 76.312 285.43 76.5907 285.224 77.148C284.99 77.8813 284.535 78.4827 283.86 78.952C283.215 79.4213 282.731 79.656 282.408 79.656C278.126 79.656 273.843 79.656 269.56 79.656L268.46 92.768C268.49 93.384 268.05 94.088 267.14 94.88C266.818 95.1733 266.451 95.3933 266.04 95.54C265.659 95.716 265.395 95.7307 265.248 95.584C265.131 95.4667 265.087 95.2907 265.116 95.056L267.8 63.464ZM293.719 59.768C293.748 59.416 293.939 59.0053 294.291 58.536C294.643 58.0667 295.009 57.7147 295.391 57.48C295.772 57.216 296.08 57.0547 296.315 56.996C296.843 56.8493 297.092 57.0107 297.063 57.48L293.807 92.856C293.777 93.1787 293.587 93.5747 293.235 94.044C292.883 94.5427 292.516 94.9093 292.135 95.144C291.753 95.408 291.445 95.5693 291.211 95.628C290.683 95.7747 290.433 95.6133 290.463 95.144L293.719 59.768ZM312.18 70.196C317.577 70.6653 319.748 75.08 318.692 83.44C318.252 86.784 317.269 89.468 315.744 91.492C313.397 94.6013 310.479 95.9947 306.988 95.672C301.063 95.144 298.555 91.3307 299.464 84.232C299.728 82.208 300.109 80.4333 300.608 78.908C301.136 77.3827 301.913 75.96 302.94 74.64C305.433 71.3547 308.513 69.8733 312.18 70.196ZM309.628 73.54C307.399 73.3347 305.888 73.76 305.096 74.816C304.656 75.3733 304.216 76.2973 303.776 77.588C303.336 78.8493 303.013 80.3307 302.808 82.032C301.987 88.4267 304.231 91.8587 309.54 92.328C311.564 92.504 312.899 92.1667 313.544 91.316C313.867 90.876 314.204 90.1573 314.556 89.16C314.908 88.1333 315.172 86.96 315.348 85.64C316.345 77.984 314.439 73.9507 309.628 73.54ZM324.768 72.968C324.797 72.6453 324.988 72.2493 325.34 71.78C325.692 71.3107 326.058 70.9587 326.44 70.724C326.821 70.46 327.144 70.2987 327.408 70.24C327.936 70.1227 328.17 70.284 328.112 70.724L327.892 72.66C330.15 70.7533 332.482 69.932 334.888 70.196C335.298 70.2547 335.401 70.5627 335.196 71.12C334.902 71.8827 334.418 72.484 333.744 72.924C333.069 73.364 332.6 73.5693 332.336 73.54C330.84 73.364 329.564 73.672 328.508 74.464C328.009 74.8453 327.657 75.74 327.452 77.148L325.78 92.9C325.75 93.252 325.56 93.648 325.208 94.088C324.856 94.5573 324.489 94.9093 324.108 95.144C323.726 95.408 323.404 95.5693 323.14 95.628C322.612 95.7453 322.377 95.5693 322.436 95.1L324.064 79.7C324.064 79.6413 324.078 79.524 324.108 79.348L324.768 72.968ZM340.358 83.704C340.241 89.1307 342.602 92.0053 347.442 92.328C348.469 92.416 349.393 92.3867 350.214 92.24C351.27 92.064 351.857 91.8587 351.974 91.624C352.209 91.184 352.546 90.7587 352.986 90.348C353.456 89.9373 353.881 89.6733 354.262 89.556C354.644 89.4093 354.908 89.4533 355.054 89.688C355.26 90.0693 354.981 90.7587 354.218 91.756C353.456 92.7533 352.664 93.5307 351.842 94.088C351.05 94.6747 350.273 95.0707 349.51 95.276C347.809 95.7453 346.269 95.8773 344.89 95.672C339.112 95.2907 336.516 91.6387 337.102 84.716C337.278 82.5747 337.601 80.7267 338.07 79.172C338.54 77.588 339.288 76.1067 340.314 74.728C342.661 71.56 345.58 70.0493 349.07 70.196C354.614 70.4013 356.932 74.0827 356.022 81.24C355.758 82.4133 355.172 83.2493 354.262 83.748C353.91 83.9533 353.529 84.0413 353.118 84.012L340.358 83.704ZM340.666 80.404C340.872 80.3453 341.033 80.316 341.15 80.316L352.854 80.58C352.766 76.0333 350.669 73.6867 346.562 73.54C344.568 73.452 343.233 73.8773 342.558 74.816C341.678 75.9893 341.048 77.852 340.666 80.404ZM377.687 76.928C377.452 77.368 377.1 77.7933 376.631 78.204C376.191 78.5853 375.78 78.82 375.399 78.908C375.017 78.996 374.783 78.9227 374.695 78.688C374.196 77.3387 373.389 76.1947 372.275 75.256C371.189 74.288 370.045 73.716 368.843 73.54C367.64 73.364 366.701 73.4667 366.027 73.848C365.44 75.08 365.601 76.3853 366.511 77.764C367.303 78.9667 368.887 80.0373 371.263 80.976C372.876 81.6213 373.947 82.0907 374.475 82.384C376.821 83.8213 377.965 85.6693 377.907 87.928C377.848 89.7173 376.997 91.4333 375.355 93.076C372.363 96.0387 368.975 96.596 365.191 94.748C363.049 93.692 361.289 92.064 359.911 89.864C359.793 89.6587 359.837 89.336 360.043 88.896C360.277 88.456 360.615 88.0307 361.055 87.62C361.495 87.2093 361.92 86.9307 362.331 86.784C362.741 86.6373 363.005 86.6667 363.123 86.872C364.707 89.3653 366.731 91.052 369.195 91.932C370.779 92.4893 372.201 92.5627 373.463 92.152C373.873 92.0053 374.123 91.8733 374.211 91.756C374.592 91.1107 374.665 90.2747 374.431 89.248C374.02 87.3707 372.392 85.86 369.547 84.716C369.429 84.6573 369.092 84.5253 368.535 84.32C366.951 83.704 365.895 83.1907 365.367 82.78C362.697 80.844 361.817 78.5267 362.727 75.828C363.079 74.7427 363.665 73.7747 364.487 72.924C366.569 70.7533 368.828 69.844 371.263 70.196C372.788 70.4013 374.152 71.032 375.355 72.088C376.557 73.1147 377.423 74.376 377.951 75.872C378.039 76.1067 377.951 76.4587 377.687 76.928Z" fill="#07117E"/>
</svg>
