<svg width="512" height="512" viewBox="0 0 512 512" fill="none" xmlns="http://www.w3.org/2000/svg">
<rect x="5" y="5" width="502" height="502" rx="245" fill="#FDEEFD"/>
<rect x="5" y="5" width="502" height="502" rx="245" stroke="#E915FB" stroke-width="10"/>
<g filter="url(#filter0_d_439_717)">
<path d="M412.378 128.656L305.929 163.47C308.804 167.836 311.431 171.798 313.716 175.189C319.439 178.061 323.573 181.716 325.97 186.084C332.938 198.76 324.255 215.276 323.891 215.988C323.475 216.758 322.886 217.458 322.164 218.042C321.441 218.625 320.6 219.079 319.696 219.374C318.573 219.74 317.387 219.845 316.26 219.677C315.442 219.569 296.099 216.678 289.122 203.987C286.152 198.617 285.613 191.738 287.542 184.011L281.766 175.335C281.099 174.301 280.318 173.143 279.623 172.074L200.209 198.046C200.274 199.299 200.333 200.657 200.391 201.853L200.866 212.37C206.985 217.454 210.618 223.317 211.403 229.405C213.266 243.769 199.378 257.532 198.774 258.101C197.961 258.901 196.942 259.518 195.819 259.889C194.043 260.47 192.088 260.413 190.445 259.632C189.721 259.28 172.97 251.089 171.086 236.74C170.442 231.81 171.613 226.43 174.538 220.719L173.908 206.648L67.4427 241.468C66.551 241.763 65.7954 242.346 65.3416 243.091C64.8877 243.836 64.7725 244.681 65.0213 245.442C65.0213 245.442 108.969 352.438 129.111 393.515C149.259 434.584 167.314 441.387 169.188 440.774L448.089 349.558C449.944 348.952 460.502 332.791 452.48 287.756C444.465 242.716 416.691 130.427 416.691 130.427C416.568 130.049 416.36 129.703 416.076 129.409C415.793 129.115 415.441 128.879 415.04 128.715C414.639 128.55 414.198 128.46 413.741 128.45C413.284 128.44 412.821 128.51 412.378 128.656Z" fill="url(#paint0_radial_439_717)"/>
<path d="M319.932 189.016C317.502 184.6 313.051 181.681 308.722 179.716C305.548 174.985 302.393 170.243 299.259 165.489C281.529 138.698 254.734 98.2348 233.841 76.1464C223.718 65.4269 214.774 57.6216 199.798 62.5197C185.622 67.1559 182.068 80.8275 180.464 93.6035C176.673 123.728 178.959 172.171 180.475 204.238C180.786 210.765 181.061 216.523 181.244 221.405C178.918 225.55 177.047 230.533 177.7 235.53C179.233 247.324 194.041 254.427 194.041 254.427C194.041 254.427 206.352 242.398 204.815 230.602C203.919 223.806 198.661 218.643 194.34 215.409C194.177 211.526 193.973 207.347 193.767 202.649C192.253 170.945 189.976 123.031 193.67 93.7844C195.655 77.9856 199.691 74.6291 203.365 73.4276C209.014 71.58 212.674 72.8578 223.294 84.0957C243.574 105.538 270.076 145.567 287.608 172.058C290.187 175.953 292.473 179.4 294.617 182.613C293.043 187.775 291.847 195.049 295.156 201.055C300.889 211.476 317.914 213.913 317.914 213.913C317.914 213.913 325.665 199.436 319.932 189.016Z" fill="url(#paint1_radial_439_717)"/>
</g>
<defs>
<filter id="filter0_d_439_717" x="64.8927" y="61.0239" width="400.558" height="389.786" filterUnits="userSpaceOnUse" color-interpolation-filters="sRGB">
<feFlood flood-opacity="0" result="BackgroundImageFix"/>
<feColorMatrix in="SourceAlpha" type="matrix" values="0 0 0 0 0 0 0 0 0 0 0 0 0 0 0 0 0 0 127 0" result="hardAlpha"/>
<feOffset dx="5" dy="5"/>
<feGaussianBlur stdDeviation="2.5"/>
<feComposite in2="hardAlpha" operator="out"/>
<feColorMatrix type="matrix" values="0 0 0 0 0 0 0 0 0 0 0 0 0 0 0 0 0 0 0.5 0"/>
<feBlend mode="normal" in2="BackgroundImageFix" result="effect1_dropShadow_439_717"/>
<feBlend mode="normal" in="SourceGraphic" in2="effect1_dropShadow_439_717" result="shape"/>
</filter>
<radialGradient id="paint0_radial_439_717" cx="0" cy="0" r="1" gradientUnits="userSpaceOnUse" gradientTransform="translate(90.3916 304.202) rotate(-0.724249) scale(426.121 279.549)">
<stop stop-color="#69017A"/>
<stop offset="0.685" stop-color="#EF37FF"/>
<stop offset="1" stop-color="#E915FB"/>
</radialGradient>
<radialGradient id="paint1_radial_439_717" cx="0" cy="0" r="1" gradientUnits="userSpaceOnUse" gradientTransform="translate(147.67 136.955) rotate(14.1096) scale(195.117 202.476)">
<stop stop-color="#69017A"/>
<stop offset="0.685" stop-color="#EF37FF"/>
<stop offset="1" stop-color="#E915FB"/>
</radialGradient>
</defs>
</svg>
